<svg xmlns:xlink="http://www.w3.org/1999/xlink" xmlns="http://www.w3.org/2000/svg" width="40" height="39"
     viewBox="0 0 40 39">
    <defs>
        <polygon id="group-2-a" points="42 0 0 0 0 41"/>
    </defs>
    <g fill="none" fill-rule="evenodd" transform="translate(-1 -1)">
        <mask id="group-2-b" fill="#fff">
            <use xlink:href="#group-2-a"/>
        </mask>
        <use fill="#D8D8D8" opacity="0" xlink:href="#group-2-a"/>
        <g fill="#4A4A4A" fill-rule="nonzero" mask="url(#group-2-b)">
            <g transform="matrix(-1 0 0 1 41 1)">
                <path d="M0.1,40 L18.3,40 L18.3,21.9 L0.1,21.9 L0.1,40 Z M3.7,25.5 L14.6,25.5 L14.6,36.4 L3.7,36.4 L3.7,25.5 Z"/>
                <rect width="3.6" height="3.6" x="7.3" y="29.1"/>
                <rect width="3.6" height="3.6" x="30.9" y="36.3"/>
                <rect width="3.6" height="3.6" x="36.3" y="36.3"/>
                <polygon
                        points="36.3 25.5 32.7 25.5 32.7 21.9 21.9 21.9 21.9 40 25.5 40 25.5 29.1 29.1 29.1 29.1 32.7 40 32.7 40 21.9 40 21.9 36.3 21.9"/>
                <path d="M0.1,18.1 L18.3,18.1 L18.3,0 L0.1,0 L0.1,18.1 Z M3.7,3.7 L14.6,3.7 L14.6,14.6 L3.7,14.6 L3.7,3.7 Z"/>
                <rect width="3.6" height="3.6" x="7.3" y="7.3"/>
                <path d="M21.9,0 L21.9,18.2 L40,18.2 L40,0 L21.9,0 Z M36.3,14.5 L25.5,14.5 L25.5,3.7 L36.4,3.7 L36.4,14.5 L36.3,14.5 Z"/>
                <rect width="3.6" height="3.6" x="29.1" y="7.3"/>
            </g>
        </g>
    </g>
</svg>
