<?xml version="1.0" encoding="utf-8"?>
<!-- Generator: Adobe Illustrator 19.2.1, SVG Export Plug-In . SVG Version: 6.00 Build 0)  -->
<svg version="1.1" id="Layer_1" xmlns="http://www.w3.org/2000/svg" xmlns:xlink="http://www.w3.org/1999/xlink" x="0px" y="0px"
	 viewBox="0 0 512.3 512.3" enable-background="new 0 0 512.3 512.3" xml:space="preserve">
<g>
	<g>
		<path fill="#FFD600" d="M446.2,498.5c-126.7,18.4-253.3,18.4-380,0c-24.7-3.8-48.6-27.6-52.3-52.3c-18.4-126.7-18.4-253.3,0-380
			c3.8-24.7,27.6-48.6,52.3-52.3c126.7-18.4,253.3-18.4,380,0c24.7,3.8,48.6,27.6,52.3,52.3c18.4,126.7,18.4,253.3,0,380
			C494.7,470.8,470.8,494.7,446.2,498.5z"/>
	</g>
</g>
<g>
	<path fill="#FFFFFF" d="M195.1,213.2h212.8l2.3-15.1c0-0.1,0-0.3,0-0.4c0-0.9-0.5-1.9-1.4-2.7c-1.1-1.1-2.8-2-4.6-2.3
		c-0.4,0-0.8,0-1.1,0H204.9l10.1-21h188c1.4,0,2.7,0.1,4.1,0.4c6.1,0.9,12,3.8,16.4,8c4.7,4.6,7.7,10.7,7.7,17.6c0,1,0,2.2-0.3,3.3
		l-20.9,141.2c-1,7.2-4.2,13.8-8.9,18.5c-4.9,4.9-11.2,7.8-18.8,7.8h-1H202H97.8H81.2l7.2-14.9l89.9-189.1H95.5v-21h99.3h16.6
		l-7,14.9l-90.1,189.2H202h179h1c1.7,0,2.9-0.6,4-1.7c1.7-1.7,2.7-4.1,3.1-6.8l10.5-70H167.9L195.1,213.2z M212,314.9h133.1
		c3.2,0,5.7,2.6,5.7,5.9l0,0c0,3.2-2.7,5.9-5.7,5.9H212c-3.2,0-5.7-2.6-5.7-5.9l0,0C206.2,317.4,208.8,314.9,212,314.9z
		 M322.4,283.3H348c3.2,0,5.9,2.6,5.9,5.9l0,0c0,3.2-2.7,5.9-5.9,5.9h-25.5c-3.2,0-5.9-2.6-5.9-5.9l0,0
		C316.6,286,319.3,283.3,322.4,283.3z M231.8,283.3h67.4c3.2,0,5.9,2.6,5.9,5.9l0,0c0,3.2-2.7,5.9-5.9,5.9h-67.4
		c-3.2,0-5.9-2.6-5.9-5.9l0,0C225.9,286,228.6,283.3,231.8,283.3z"/>
</g>
</svg>
