<svg xmlns="http://www.w3.org/2000/svg" width="20" height="23" viewBox="0 0 20 23">
    <path fill="#CACCD0"
          d="M3,8.83992927 L3,14.7717778 C3,15.560642 2.36979167,16.1907088 1.56770833,16.1907088 C0.770833333,16.1907088 0,15.5555195 0,14.7717778 L0,8.83992927 C0,8.06643261 0.770833333,7.4312433 1.56770833,7.4312433 C2.35416667,7.4312433 3,8.06643261 3,8.83992927 Z M3.5625,16.8822455 C3.5625,17.7223346 4.25,18.3985039 5.10416667,18.3985039 L6.140625,18.3985039 L6.15625,21.528348 C6.15625,23.4185484 9.03125,23.4031809 9.03125,21.528348 L9.03125,18.3985039 L10.96875,18.3985039 L10.96875,21.528348 C10.96875,23.4083034 13.859375,23.4134259 13.859375,21.528348 L13.859375,18.3985039 L14.9114583,18.3985039 C15.7552083,18.3985039 16.4427083,17.7223346 16.4427083,16.8822455 L16.4427083,7.69249051 L3.5625,7.69249051 L3.5625,16.8822455 Z M16.4791667,7.19560855 L3.50520833,7.19560855 C3.50520833,5.00318094 4.83854167,3.09761301 6.81770833,2.10384909 L5.82291667,0.295608555 C5.67708333,0.0446063277 6.046875,-0.114191 6.171875,0.100953766 L7.18229167,1.92456178 C9,1.13057515 11.0885417,1.1715551 12.8229167,1.92456178 L13.828125,0.106076261 C13.9583333,-0.114191 14.3229167,0.0497288221 14.1770833,0.300731049 L13.1822917,2.10384909 C15.1458333,3.09761301 16.4791667,5.00318094 16.4791667,7.19560855 Z M7.58854167,4.35262415 C7.58854167,4.06064196 7.34895833,3.81476223 7.04166667,3.81476223 C6.74479167,3.81476223 6.51041667,4.06064196 6.51041667,4.35262415 C6.51041667,4.64460633 6.75,4.89048606 7.04166667,4.89048606 C7.34895833,4.89048606 7.58854167,4.64460633 7.58854167,4.35262415 Z M13.4947917,4.35262415 C13.4947917,4.06064196 13.2552083,3.81476223 12.9635417,3.81476223 C12.65625,3.81476223 12.4166667,4.06064196 12.4166667,4.35262415 C12.4166667,4.64460633 12.65625,4.89048606 12.9635417,4.89048606 C13.2552083,4.89048606 13.4947917,4.64460633 13.4947917,4.35262415 Z M18.4322917,7.4312433 C17.6458333,7.4312433 17,8.05106513 17,8.83992927 L17,14.7717778 C17,15.560642 17.6458333,16.1907088 18.4322917,16.1907088 C19.234375,16.1907088 20,15.5555195 20,14.7717778 L20,8.83992927 C20,8.05106513 19.2291667,7.4312433 18.4322917,7.4312433 Z"/>
</svg>
