<svg xmlns="http://www.w3.org/2000/svg" width="20" height="23" viewBox="0 0 20 23">
    <path fill="#CACCD0"
          d="M19.763672,16.875 C19.2246095,18.0722655 18.964844,18.607422 18.2714845,19.6640625 C17.3007815,21.140625 15.9316405,22.984375 14.2402345,22.996094 C12.734375,23.0097655 12.345703,22.013672 10.3007815,22.03125 C8.2578125,22.0410155 7.8320315,23.015625 6.324219,23 C4.6308595,22.984375 3.3359375,21.324219 2.3652345,19.8496095 C-0.3496095,15.714844 -0.6367185,10.8671875 1.0410155,8.2890625 C2.2285155,6.4609375 4.105469,5.386719 5.8691405,5.386719 C7.6660155,5.386719 8.794922,6.373047 10.279297,6.373047 C11.720703,6.373047 12.5976565,5.3847655 14.6757815,5.3847655 C16.246094,5.3847655 17.90625,6.2402345 19.09375,7.716797 C15.2109375,9.845703 15.841797,15.390625 19.763672,16.875 Z M13.0976565,3.734375 C13.8535155,2.763672 14.4277345,1.3945315 14.21875,0 C12.986328,0.0839845 11.544922,0.871094 10.703125,1.890625 C9.939453,2.8203125 9.3066405,4.199219 9.5527345,5.533203 C10.8984375,5.576172 12.2910155,4.7734375 13.0976565,3.734375 Z"/>
</svg>
