<svg xmlns="http://www.w3.org/2000/svg" width="12" height="12" viewBox="0 0 12 12">
    <g fill="none" fill-rule="evenodd" transform="translate(-1 -1)">
        <polygon points="0 0 14 0 14 14 0 14"/>
        <g fill="#686868" fill-rule="nonzero" transform="translate(1.167 1.167)">
            <path d="M5.8275,0 C2.6075,0 0,2.61333333 0,5.83333333 C0,9.05333333 2.6075,11.6666667 5.8275,11.6666667 C9.05333333,11.6666667 11.6666667,9.05333333 11.6666667,5.83333333 C11.6666667,2.61333333 9.05333333,0 5.8275,0 Z M5.83333333,10.5 C3.255,10.5 1.16666667,8.41166667 1.16666667,5.83333333 C1.16666667,3.255 3.255,1.16666667 5.83333333,1.16666667 C8.41166667,1.16666667 10.5,3.255 10.5,5.83333333 C10.5,8.41166667 8.41166667,10.5 5.83333333,10.5 Z"/>
            <path d="M5.705,2.91666667 L5.67,2.91666667 C5.43666667,2.91666667 5.25,3.10333333 5.25,3.33666667 L5.25,6.09 C5.25,6.29416667 5.355,6.48666667 5.53583333,6.59166667 L7.95666667,8.04416667 C8.155,8.16083333 8.41166667,8.1025 8.52833333,7.90416667 C8.65083333,7.70583333 8.58666667,7.44333333 8.3825,7.32666667 L6.125,5.985 L6.125,3.33666667 C6.125,3.10333333 5.93833333,2.91666667 5.705,2.91666667 Z"/>
        </g>
    </g>
</svg>
