<svg xmlns="http://www.w3.org/2000/svg" width="20" height="17" viewBox="0 0 20 17">
    <path fill="#737373"
          d="M11.4035088,0.53125 C7.04385965,0.53125 3.50877193,4.09947917 3.50877193,8.5 L0.877192982,8.5 L4.28947368,11.9442708 L4.35087719,12.0682292 L7.89473684,8.5 L5.26315789,8.5 C5.26315789,5.0734375 8.00877193,2.30208333 11.4035088,2.30208333 C14.7982456,2.30208333 17.5438596,5.0734375 17.5438596,8.5 C17.5438596,11.9265625 14.7982456,14.6979167 11.4035088,14.6979167 C9.71052632,14.6979167 8.1754386,13.9984375 7.07017544,12.8739583 L5.8245614,14.13125 C7.25438596,15.5744792 9.21929825,16.46875 11.4035088,16.46875 C15.7631579,16.46875 19.2982456,12.9005208 19.2982456,8.5 C19.2982456,4.09947917 15.7631579,0.53125 11.4035088,0.53125 Z M10.5263158,4.95833333 L10.5263158,9.38541667 L14.2807018,11.634375 L14.9122807,10.5630208 L11.8421053,8.72135417 L11.8421053,4.95833333 L10.5263158,4.95833333 Z"/>
</svg>
