<svg xmlns="http://www.w3.org/2000/svg" width="20" height="20" viewBox="0 0 20 20">
    <path fill="#CACCD0"
          d="M9.99074074,0.740740741 C4.87962963,0.740740741 0.740740741,4.88888889 0.740740741,10 C0.740740741,15.1111111 4.87962963,19.2592593 9.99074074,19.2592593 C15.1111111,19.2592593 19.2592593,15.1111111 19.2592593,10 C19.2592593,4.88888889 15.1111111,0.740740741 9.99074074,0.740740741 Z M16.4074074,6.2962963 L13.6759259,6.2962963 C13.3796296,5.13888889 12.9537037,4.02777778 12.3981481,3 C14.1018519,3.58333333 15.5185185,4.76851852 16.4074074,6.2962963 Z M10,2.62962963 C10.7685185,3.74074074 11.3703704,4.97222222 11.7685185,6.2962963 L8.23148148,6.2962963 C8.62962963,4.97222222 9.23148148,3.74074074 10,2.62962963 Z M2.83333333,11.8518519 C2.68518519,11.2592593 2.59259259,10.6388889 2.59259259,10 C2.59259259,9.36111111 2.68518519,8.74074074 2.83333333,8.14814815 L5.96296296,8.14814815 C5.88888889,8.75925926 5.83333333,9.37037037 5.83333333,10 C5.83333333,10.6296296 5.88888889,11.2407407 5.96296296,11.8518519 L2.83333333,11.8518519 Z M3.59259259,13.7037037 L6.32407407,13.7037037 C6.62037037,14.8611111 7.0462963,15.9722222 7.60185185,17 C5.89814815,16.4166667 4.48148148,15.2407407 3.59259259,13.7037037 Z M6.32407407,6.2962963 L3.59259259,6.2962963 C4.48148148,4.75925926 5.89814815,3.58333333 7.60185185,3 C7.0462963,4.02777778 6.62037037,5.13888889 6.32407407,6.2962963 Z M10,17.3703704 C9.23148148,16.2592593 8.62962963,15.0277778 8.23148148,13.7037037 L11.7685185,13.7037037 C11.3703704,15.0277778 10.7685185,16.2592593 10,17.3703704 Z M12.1666667,11.8518519 L7.83333333,11.8518519 C7.75,11.2407407 7.68518519,10.6296296 7.68518519,10 C7.68518519,9.37037037 7.75,8.75 7.83333333,8.14814815 L12.1666667,8.14814815 C12.25,8.75 12.3148148,9.37037037 12.3148148,10 C12.3148148,10.6296296 12.25,11.2407407 12.1666667,11.8518519 Z M12.3981481,17 C12.9537037,15.9722222 13.3796296,14.8611111 13.6759259,13.7037037 L16.4074074,13.7037037 C15.5185185,15.2314815 14.1018519,16.4166667 12.3981481,17 Z M14.037037,11.8518519 C14.1111111,11.2407407 14.1666667,10.6296296 14.1666667,10 C14.1666667,9.37037037 14.1111111,8.75925926 14.037037,8.14814815 L17.1666667,8.14814815 C17.3148148,8.74074074 17.4074074,9.36111111 17.4074074,10 C17.4074074,10.6388889 17.3148148,11.2592593 17.1666667,11.8518519 L14.037037,11.8518519 Z"/>
</svg>
