<svg xmlns="http://www.w3.org/2000/svg" width="18" height="17" viewBox="0 0 18 17">
    <g fill="none">
        <path fill="#ECEFF1"
              d="M17.4375,14 L9.5625,14 C9.252,14 9,13.7556364 9,13.4545455 C9,13.1534545 9,2.84654545 9,2.54545455 C9,2.24436364 9.252,2 9.5625,2 L17.4375,2 C17.748,2 18,2.24436364 18,2.54545455 L18,13.4545455 C18,13.7556364 17.748,14 17.4375,14 Z"/>
        <g fill="#388E3C" transform="translate(9 5)">
            <path d="M2.91666667 1.13816889L.583333333 1.13816889C.261333333 1.13816889 0 .883306667 0 .56928 0 .255253333.261333333.000391111111.583333333.000391111111L2.91666667.000391111111C3.23866667.000391111111 3.5.255253333 3.5.56928 3.5.883306667 3.23866667 1.13816889 2.91666667 1.13816889zM2.91666667 3.41372444L.583333333 3.41372444C.261333333 3.41372444 0 3.15886222 0 2.84483556 0 2.53080889.261333333 2.27594667.583333333 2.27594667L2.91666667 2.27594667C3.23866667 2.27594667 3.5 2.53080889 3.5 2.84483556 3.5 3.15886222 3.23866667 3.41372444 2.91666667 3.41372444zM2.91666667 5.68928L.583333333 5.68928C.261333333 5.68928 0 5.43441778 0 5.12039111 0 4.80636444.261333333 4.55150222.583333333 4.55150222L2.91666667 4.55150222C3.23866667 4.55150222 3.5 4.80636444 3.5 5.12039111 3.5 5.43441778 3.23866667 5.68928 2.91666667 5.68928zM2.91666667 7.96483556L.583333333 7.96483556C.261333333 7.96483556 0 7.70997333 0 7.39594667 0 7.08192.261333333 6.82705778.583333333 6.82705778L2.91666667 6.82705778C3.23866667 6.82705778 3.5 7.08192 3.5 7.39594667 3.5 7.70997333 3.23866667 7.96483556 2.91666667 7.96483556zM6.41666667 1.13816889L5.25 1.13816889C4.928 1.13816889 4.66666667.883306667 4.66666667.56928 4.66666667.255253333 4.928.000391111111 5.25.000391111111L6.41666667.000391111111C6.73866667.000391111111 7 .255253333 7 .56928 7 .883306667 6.73866667 1.13816889 6.41666667 1.13816889zM6.41666667 3.41372444L5.25 3.41372444C4.928 3.41372444 4.66666667 3.15886222 4.66666667 2.84483556 4.66666667 2.53080889 4.928 2.27594667 5.25 2.27594667L6.41666667 2.27594667C6.73866667 2.27594667 7 2.53080889 7 2.84483556 7 3.15886222 6.73866667 3.41372444 6.41666667 3.41372444zM6.41666667 5.68928L5.25 5.68928C4.928 5.68928 4.66666667 5.43441778 4.66666667 5.12039111 4.66666667 4.80636444 4.928 4.55150222 5.25 4.55150222L6.41666667 4.55150222C6.73866667 4.55150222 7 4.80636444 7 5.12039111 7 5.43441778 6.73866667 5.68928 6.41666667 5.68928zM6.41666667 7.96483556L5.25 7.96483556C4.928 7.96483556 4.66666667 7.70997333 4.66666667 7.39594667 4.66666667 7.08192 4.928 6.82705778 5.25 6.82705778L6.41666667 6.82705778C6.73866667 6.82705778 7 7.08192 7 7.39594667 7 7.70997333 6.73866667 7.96483556 6.41666667 7.96483556z"/>
        </g>
        <path fill="#2E7D32"
              d="M10.7787778,0.131091036 C10.6394444,0.0234292048 10.4524444,-0.0230353748 10.2764444,0.0109630981 L0.498666667,1.71088674 C0.209,1.76075117 0,1.99420735 0,2.26732842 L0,14.7334351 C0,15.0054229 0.209,15.2400124 0.498666667,15.2898768 L10.2764444,16.9898005 C10.3131111,16.9966002 10.351,17 10.3888889,17 C10.5306667,17 10.6687778,16.9546687 10.7787778,16.8696725 C10.9193333,16.7620107 11,16.6010846 11,16.4333588 L11,0.567404771 C11,0.398545689 10.9193333,0.238752866 10.7787778,0.131091036 Z"/>
        <path fill="#FAFAFA"
              d="M6.86238899,10.0955565 L5.10586846,8.12410961 L6.88238732,5.88100238 C7.0712605,5.64316319 7.02681975,5.30058748 6.7857287,5.11511655 C6.54463765,4.92964562 6.19577778,4.97328584 6.00579359,5.21003403 L4.36037493,7.28730842 L2.97382363,5.73153464 C2.77050721,5.50242349 2.41942531,5.48169439 2.19055546,5.68025738 C1.95946358,5.87882037 1.93613219,6.2235781 2.13833758,6.44941623 L3.66598826,8.16447681 L2.11722823,10.1195586 C1.92835506,10.3573978 1.9727958,10.6999735 2.21388685,10.8854444 C2.31610057,10.9629058 2.43720161,11 2.55608061,11 C2.72162239,11 2.88494213,10.9279936 2.99493298,10.7894359 L4.41148179,9.00018699 L6.02690294,10.8123471 C6.13689379,10.9367217 6.29021437,11 6.44464596,11 C6.57463515,11 6.70462433,10.9552688 6.81017111,10.8647153 C7.04126299,10.6661523 7.06459438,10.3213946 6.86238899,10.0955565 Z"/>
    </g>
</svg>
