<?xml version="1.0" encoding="iso-8859-1"?>
<!-- Generator: Adobe Illustrator 19.0.0, SVG Export Plug-In . SVG Version: 6.00 Build 0)  -->
<svg version="1.1" xmlns="http://www.w3.org/2000/svg"  x="0px" y="0px"
	 viewBox="0 0 612 792" style="enable-background:new 0 0 612 792;" xml:space="preserve">
<g id="Layer_1">
	<g id="XMLID_1_">
		<path id="XMLID_22_" style="fill:#FFFFFF;" d="M88.699,637.108L88.699,637.108l11.838-9.515l12.957,10.326l9.718-9.199
			l13.377,10.346l12.657-9.053l11.698,10.263l10.978-9.137l12.957,10.326l13.077-9.032l12.118,10.284l13.917-8.991l10.858,10.221
			l13.077-9.032l10.858,10.221l10.977-9.137l12.539,10.305l12.237-9.074l12.957,10.326l12.657-9.053l11.279,10.242l13.077-9.032
			l10.439,10.2l10.137-9.178l10.439,10.2l10.137-9.178l10.838,10.641l11.838-9.515l9.599,10.159l12.636-8.633l10.039,9.76
			l13.098-9.452l15.875,10.891l21.097-424.745c0.593-11.944-8.608-22.107-20.552-22.7l-337.613-16.769
			c-11.944-0.593-22.107,8.608-22.7,20.552L88.699,637.108z"/>
		<g id="XMLID_17_">
			<path id="XMLID_21_" style="fill:#C9C9C9;" d="M89.495,637.903c3.946-3.172,7.892-6.343,11.838-9.515c-0.53,0-1.061,0-1.591,0
				c4.319,3.442,8.638,6.884,12.957,10.326c0.486,0.387,1.108,0.457,1.591,0c3.239-3.066,6.479-6.133,9.718-9.199
				c-0.53,0-1.061,0-1.591,0c4.459,3.449,8.918,6.898,13.377,10.346c0.37,0.286,0.928,0.487,1.363,0.176
				c2.109-1.509,4.219-3.018,6.328-4.527c1.346-0.963,2.692-1.926,4.039-2.889c0.437-0.313,2.944-1.716,1.606-1.677
				c-1.138,0.034,0.458,0.861,1.149,1.467c1.34,1.176,2.681,2.352,4.021,3.528c1.95,1.711,3.899,3.421,5.849,5.131
				c0.489,0.429,1.097,0.411,1.591,0c3.659-3.046,7.319-6.091,10.978-9.137c-0.53,0-1.061,0-1.591,0
				c4.319,3.442,8.638,6.884,12.957,10.325c0.371,0.295,0.926,0.478,1.363,0.176c2.18-1.505,4.359-3.011,6.539-4.516
				c1.391-0.961,2.782-1.921,4.173-2.882c0.444-0.306,3.017-1.706,1.682-1.673c-1.146,0.028,0.523,0.884,1.214,1.47
				c1.388,1.178,2.777,2.357,4.165,3.535c2.02,1.714,4.039,3.428,6.059,5.142c0.37,0.314,0.923,0.46,1.363,0.176
				c4.521-2.92,8.974-6.434,13.758-8.888c-1.198,0.615-1.266-0.758,0.112,0.96c1.045,1.304,2.54,2.391,3.759,3.538
				c1.928,1.815,3.855,3.629,5.783,5.444c0.342,0.321,0.949,0.462,1.363,0.176c4.337-2.995,8.691-5.967,13.011-8.987
				c-0.775,0.542-1.382-0.904-0.791,0.255c0.193,0.378,0.763,0.719,1.068,1.005c1.167,1.099,2.334,2.197,3.501,3.296
				c1.928,1.815,3.855,3.629,5.783,5.444c0.473,0.445,1.111,0.399,1.591,0c3.659-3.046,7.318-6.091,10.977-9.137
				c-0.53,0-1.061,0-1.591,0c4.18,3.435,8.359,6.87,12.539,10.305c0.354,0.291,0.943,0.488,1.363,0.176
				c2.172-1.611,4.345-3.222,6.517-4.833c1.315-0.975,2.631-1.951,3.946-2.926c1.698-1.259,1.751-0.767,0.558-1.373
				c4.573,2.324,8.78,6.997,12.809,10.208c0.365,0.291,0.932,0.484,1.363,0.176c4.197-3.002,8.438-5.948,12.593-9.007
				c-0.761,0.561-1.405-0.917-0.774,0.256c0.206,0.383,0.792,0.719,1.109,1.007c1.212,1.101,2.425,2.202,3.637,3.303
				c2.002,1.818,4.005,3.637,6.007,5.455c0.348,0.316,0.944,0.466,1.363,0.176c4.189-2.894,9.173-5.482,12.915-8.921
				c-0.892,0.82-1.325-0.874,0.171,1.054c0.963,1.241,2.366,2.312,3.492,3.412c1.858,1.816,3.716,3.631,5.574,5.447
				c0.45,0.44,1.135,0.412,1.591,0c3.379-3.059,6.758-6.119,10.137-9.178c-0.53,0-1.061,0-1.591,0c3.479,3.4,6.959,6.8,10.439,10.2
				c0.45,0.44,1.135,0.412,1.591,0c3.379-3.06,6.758-6.119,10.137-9.178c-0.53,0-1.061,0-1.591,0
				c3.613,3.547,7.225,7.094,10.838,10.641c0.468,0.46,1.113,0.384,1.591,0c3.946-3.172,7.892-6.343,11.838-9.515
				c-0.53,0-1.061,0-1.591,0c3.2,3.386,6.399,6.772,9.599,10.159c0.321,0.34,0.964,0.449,1.363,0.176
				c3.99-2.726,8.154-6.652,12.567-8.586c-1.271,0.557-1.272-0.486,0.026,1.06c1.084,1.291,2.492,2.423,3.7,3.597
				c1.673,1.627,3.346,3.253,5.02,4.88c0.329,0.32,0.961,0.467,1.363,0.176c2.314-1.67,4.628-3.34,6.942-5.01
				c1.537-1.109,3.42-2.143,4.794-3.46c0.259-0.248,0.792-0.631,1.124-0.811c0.673-0.365-1.434-0.439-0.552,0.065
				c5.394,3.081,10.405,7.138,15.53,10.654c0.745,0.511,1.654-0.181,1.693-0.971c1.377-27.72,2.754-55.44,4.131-83.16
				c2.83-56.971,5.66-113.941,8.489-170.912c2.396-48.239,4.792-96.478,7.188-144.717c0.427-8.604,1.08-17.231,1.284-25.844
				c0.304-12.841-9.105-23.012-21.862-23.946c-3.225-0.236-6.468-0.321-9.698-0.482c-46.01-2.285-92.021-4.571-138.031-6.856
				c-52.896-2.627-105.792-5.255-158.688-7.882c-10.295-0.511-20.619-1.298-30.925-1.536c-12.877-0.298-22.982,9.166-23.917,21.923
				c-0.203,2.775-0.276,5.566-0.414,8.345c-1.998,40.23-3.996,80.461-5.995,120.691c-2.91,58.59-5.82,117.18-8.73,175.77
				c-1.893,38.113-3.786,76.226-5.679,114.338c-0.096,1.923-0.191,3.847-0.287,5.77c-0.072,1.447,2.178,1.444,2.25,0
				c1.341-26.998,2.682-53.997,4.023-80.995c2.795-56.281,5.591-112.561,8.386-168.842c2.404-48.402,4.808-96.805,7.212-145.207
				c0.487-9.804,0.804-19.634,1.462-29.429c0.797-11.867,9.947-20.428,21.923-20.103c3.44,0.093,6.883,0.342,10.319,0.513
				c45.432,2.257,90.864,4.513,136.296,6.77c52.612,2.613,105.225,5.226,157.837,7.84c10.834,0.538,21.712,0.832,32.531,1.616
				c11.994,0.869,20.176,10.495,19.702,22.378c-0.13,3.259-0.324,6.517-0.486,9.775c-2.039,41.042-4.077,82.085-6.116,123.127
				c-2.872,57.823-5.744,115.645-8.616,173.468c-1.855,37.353-3.711,74.706-5.566,112.059c-0.092,1.843-0.183,3.685-0.275,5.528
				c0.564-0.324,1.129-0.648,1.693-0.971c-5.292-3.63-10.584-7.261-15.875-10.891c-0.302-0.207-0.835-0.217-1.136,0
				c-4.135,2.984-9.251,5.694-12.86,9.28c0.756-0.751,1.181,1.09,0.028-0.719c-0.743-1.166-2.253-2.191-3.24-3.149
				c-1.901-1.848-3.801-3.696-5.702-5.543c-0.337-0.328-0.952-0.457-1.363-0.176c-4.079,2.787-8.731,5.294-12.467,8.517
				c0.765-0.66,1.322,0.914,0.051-0.917c-0.882-1.27-2.252-2.383-3.314-3.507c-1.714-1.814-3.428-3.628-5.142-5.442
				c-0.45-0.476-1.128-0.372-1.591,0c-3.946,3.172-7.892,6.343-11.838,9.515c0.53,0,1.061,0,1.591,0
				c-3.613-3.547-7.225-7.094-10.838-10.641c-0.449-0.441-1.136-0.412-1.591,0c-3.379,3.059-6.758,6.119-10.137,9.178
				c0.53,0,1.061,0,1.591,0c-3.479-3.4-6.959-6.8-10.439-10.2c-0.45-0.44-1.135-0.412-1.591,0
				c-3.379,3.059-6.758,6.119-10.137,9.178c0.53,0,1.061,0,1.591,0c-3.48-3.4-6.959-6.8-10.439-10.2
				c-0.335-0.327-0.954-0.458-1.363-0.176c-4.337,2.996-8.665,6.004-13.011,8.987c0.776-0.533,1.402,0.898,0.771-0.256
				c-0.21-0.384-0.79-0.717-1.109-1.007c-1.212-1.101-2.425-2.202-3.637-3.303c-2.002-1.818-4.005-3.637-6.007-5.455
				c-0.343-0.311-0.95-0.472-1.363-0.176c-2.109,1.509-4.219,3.018-6.329,4.527c-1.45,1.037-2.901,2.075-4.351,3.112
				c-1.543,1.104-2.296,0.818-0.675,1.542c-2.391-1.069-4.767-3.799-6.807-5.424c-2.03-1.618-4.06-3.235-6.09-4.853
				c-0.359-0.286-0.939-0.491-1.363-0.176c-2.172,1.611-4.345,3.222-6.517,4.833c-1.315,0.975-2.631,1.951-3.946,2.926
				c-1.729,1.282-1.71,0.742-0.554,1.373c-4.448-2.427-8.467-6.958-12.395-10.187c-0.503-0.414-1.084-0.422-1.591,0
				c-3.659,3.046-7.318,6.091-10.977,9.137c0.53,0,1.061,0,1.591,0c-3.619-3.407-7.239-6.814-10.858-10.221
				c-0.342-0.321-0.949-0.462-1.363-0.176c-4.337,2.995-8.691,5.967-13.011,8.987c0.775-0.542,1.382,0.904,0.791-0.255
				c-0.193-0.378-0.763-0.719-1.068-1.005c-1.167-1.099-2.334-2.197-3.501-3.296c-1.928-1.815-3.855-3.629-5.783-5.444
				c-0.351-0.33-0.938-0.451-1.363-0.176c-4.611,2.979-9.154,6.11-13.852,8.949c0.725-0.438,1.476,0.829,0.778-0.224
				c-0.291-0.44-0.983-0.834-1.373-1.165c-1.388-1.178-2.777-2.357-4.165-3.535c-2.02-1.714-4.039-3.428-6.059-5.142
				c-0.36-0.305-0.934-0.472-1.363-0.176c-2.18,1.505-4.359,3.011-6.539,4.516c-1.498,1.035-2.997,2.07-4.495,3.105
				c-1.563,1.08-2.373,0.808-0.741,1.539c-2.392-1.07-4.766-3.798-6.807-5.424c-2.03-1.618-4.06-3.235-6.09-4.853
				c-0.51-0.406-1.078-0.427-1.591,0c-3.659,3.046-7.319,6.091-10.978,9.137c0.53,0,1.061,0,1.591,0
				c-3.899-3.421-7.798-6.842-11.698-10.263c-0.349-0.306-0.945-0.475-1.363-0.176c-2.109,1.509-4.219,3.018-6.328,4.527
				c-1.45,1.037-2.901,2.075-4.351,3.112c-0.366,0.262-1.174,0.629-1.434,1.026c-0.599,0.913-0.322-0.154,0.678,0.455
				c-4.672-2.848-8.903-6.886-13.236-10.237c-0.492-0.38-1.103-0.462-1.591,0c-3.239,3.066-6.479,6.133-9.718,9.199
				c0.53,0,1.061,0,1.591,0c-4.319-3.442-8.638-6.884-12.957-10.325c-0.516-0.412-1.07-0.418-1.591,0
				c-3.946,3.172-7.892,6.343-11.838,9.515C86.775,637.219,88.376,638.802,89.495,637.903z"/>
		</g>
	</g>
	<g id="XMLID_2_">
		<path id="XMLID_28_" style="fill:#F2F2F2;" d="M110.511,666.668L110.511,666.668l10.875-10.602l13.885,9.04l8.795-10.086
			l14.305,9.021l11.734-10.221l12.625,9.098l10.055-10.144l13.885,9.04l12.154-10.24l13.045,9.079l12.995-10.279l11.785,9.137
			l12.154-10.24l11.785,9.137l10.054-10.144l13.466,9.06l11.314-10.202l13.884,9.04l11.734-10.221l12.206,9.118l12.154-10.24
			l11.366,9.156l9.214-10.105l11.365,9.156l9.214-10.105l11.805,9.557l10.874-10.602l10.526,9.195l11.754-9.801l10.926,8.756
			l12.135-10.66l16.843,9.325l-19.581-424.818c-0.551-11.946-10.681-21.183-22.626-20.632l-337.67,15.564
			c-11.946,0.551-21.183,10.681-20.632,22.626L110.511,666.668z"/>
		<g id="XMLID_23_">
			<path id="XMLID_27_" style="fill:#C9C9C9;" d="M111.306,667.464c1.931-1.882,3.861-3.764,5.792-5.647
				c1.169-1.14,2.338-2.279,3.507-3.419c0.396-0.386,0.852-0.752,1.207-1.176c0.698-0.835-0.822-0.074-0.835-0.081
				c4.786,2.403,9.232,6.011,13.726,8.937c0.392,0.255,1.049,0.184,1.363-0.176c1.674-1.92,3.348-3.84,5.022-5.759
				c0.841-0.964,2.371-2.196,2.937-3.368c0.136-0.282,0.559-0.639,0.778-0.892c-1.261,1.457-1.556-0.479-0.778,0.442
				c1.606,1.902,5.362,3.382,7.449,4.697c2.11,1.33,4.219,2.661,6.329,3.991c0.444,0.28,0.993,0.147,1.363-0.176
				c1.956-1.703,3.911-3.407,5.867-5.111c1.248-1.087,2.496-2.174,3.744-3.261c0.692-0.603,2.561-1.671,1.443-1.712
				c-1.331-0.049,0.821,1.124,1.289,1.461c1.447,1.042,2.893,2.085,4.34,3.128c2.104,1.516,4.208,3.033,6.312,4.549
				c0.398,0.287,1.036,0.154,1.363-0.176c1.79-1.806,3.579-3.611,5.369-5.417c1.095-1.105,2.386-2.179,3.364-3.393
				c0.319-0.396,0.781-0.692,1.088-1.097c0.321-0.425-1.212-0.177-0.877,0.104c4.066,3.405,9.183,5.979,13.632,8.876
				c0.444,0.289,0.991,0.138,1.363-0.176c2.026-1.707,4.051-3.414,6.077-5.12c1.293-1.089,2.585-2.178,3.878-3.268
				c0.691-0.582,2.643-1.681,1.52-1.716c-1.33-0.042,0.878,1.126,1.354,1.458c1.495,1.04,2.989,2.081,4.484,3.121
				c2.174,1.513,4.348,3.026,6.522,4.539c0.443,0.308,0.989,0.12,1.363-0.176c4.332-3.426,8.663-6.853,12.995-10.279
				c-0.53,0-1.061,0-1.591,0c3.928,3.046,7.857,6.091,11.785,9.137c0.513,0.398,1.076,0.434,1.591,0
				c4.051-3.413,8.103-6.827,12.154-10.24c-0.53,0-1.061,0-1.591,0c3.928,3.046,7.857,6.091,11.785,9.137
				c0.479,0.371,1.12,0.476,1.591,0c1.79-1.806,3.579-3.611,5.369-5.417c1.095-1.105,2.386-2.179,3.363-3.393
				c0.317-0.394,0.787-0.69,1.088-1.097c0.316-0.427-1.196-0.17-0.884,0.104c3.882,3.421,8.922,6.002,13.221,8.895
				c0.428,0.288,1.007,0.145,1.363-0.176c2.009-1.811,4.017-3.622,6.026-5.433c1.216-1.097,2.432-2.193,3.649-3.29
				c0.414-0.374,0.874-0.725,1.255-1.132c0.757-0.807-0.846-0.081-0.82-0.068c4.781,2.437,9.224,6.006,13.726,8.937
				c0.439,0.286,0.997,0.143,1.363-0.176c3.815-3.323,7.504-7.314,11.675-10.169c-0.915,0.627-1.302-0.44-0.735,0.549
				c0.204,0.356,0.878,0.656,1.2,0.897c1.312,0.98,2.624,1.96,3.936,2.94c2.167,1.619,4.334,3.237,6.501,4.856
				c0.42,0.314,1.01,0.122,1.363-0.176c4.051-3.413,8.103-6.827,12.154-10.24c-0.53,0-1.061,0-1.591,0
				c3.789,3.052,7.577,6.104,11.366,9.156c0.456,0.367,1.147,0.487,1.591,0c3.071-3.368,6.143-6.737,9.214-10.105
				c-0.53,0-1.061,0-1.591,0c3.788,3.052,7.577,6.104,11.365,9.156c0.456,0.367,1.147,0.487,1.591,0
				c3.071-3.368,6.142-6.737,9.214-10.105c-0.53,0-1.061,0-1.591,0c3.935,3.186,7.87,6.371,11.805,9.557
				c0.477,0.386,1.118,0.461,1.591,0c3.625-3.534,7.25-7.068,10.874-10.602c-0.53,0-1.061,0-1.591,0
				c3.509,3.065,7.017,6.13,10.526,9.195c0.489,0.428,1.097,0.412,1.591,0c3.918-3.267,7.836-6.534,11.754-9.801
				c-0.53,0-1.061,0-1.591,0c3.642,2.919,7.284,5.837,10.926,8.756c0.499,0.4,1.092,0.439,1.591,0
				c2.144-1.883,4.288-3.767,6.431-5.65c1.423-1.25,3.202-2.459,4.442-3.902c0.267-0.311,0.714-0.651,1.041-0.915
				c0.563-0.453-1.602-0.411-0.776,0.185c4.977,3.594,11.099,6.144,16.477,9.122c0.715,0.396,1.733-0.093,1.693-0.971
				c-1.278-27.725-2.556-55.45-3.834-83.174c-2.626-56.98-5.253-113.961-7.879-170.941c-2.224-48.247-4.448-96.494-6.671-144.741
				c-0.397-8.606-0.575-17.255-1.191-25.849c-0.917-12.771-11.12-22.144-23.947-21.861c-3.233,0.071-6.47,0.298-9.699,0.447
				c-46.018,2.121-92.036,4.242-138.055,6.363c-52.905,2.439-105.81,4.877-158.715,7.316c-10.297,0.475-20.648,0.682-30.93,1.426
				c-12.808,0.926-22.11,11.176-21.826,24.006c0.062,2.782,0.257,5.567,0.385,8.346c1.855,40.237,3.709,80.475,5.564,120.712
				c2.701,58.6,5.402,117.2,8.103,175.8c1.757,38.119,3.514,76.239,5.271,114.358c0.089,1.924,0.177,3.847,0.266,5.771
				c0.066,1.442,2.317,1.45,2.25,0c-1.245-27.003-2.489-54.006-3.734-81.009c-2.595-56.29-5.189-112.581-7.784-168.871
				c-2.231-48.411-4.463-96.821-6.694-145.232c-0.452-9.809-1.005-19.62-1.357-29.434c-0.424-11.842,7.857-21.388,19.79-22.208
				c3.433-0.236,6.884-0.317,10.321-0.476c45.44-2.094,90.88-4.189,136.319-6.283c52.621-2.426,105.243-4.851,157.864-7.277
				c10.836-0.499,21.692-1.245,32.537-1.5c12.038-0.283,21.103,8.372,21.852,20.281c0.205,3.254,0.301,6.52,0.451,9.777
				c1.892,41.049,3.784,82.099,5.676,123.148c2.666,57.832,5.331,115.665,7.997,173.497c1.722,37.359,3.444,74.719,5.166,112.078
				c0.085,1.843,0.17,3.686,0.255,5.529c0.564-0.324,1.129-0.648,1.693-0.971c-5.615-3.108-11.229-6.216-16.843-9.325
				c-0.463-0.256-0.978-0.162-1.363,0.176c-4.045,3.554-8.09,7.107-12.135,10.661c0.53,0,1.061,0,1.591,0
				c-3.642-2.919-7.284-5.837-10.926-8.756c-0.508-0.407-1.08-0.426-1.591,0c-3.918,3.267-7.836,6.534-11.754,9.801
				c0.53,0,1.061,0,1.591,0c-3.509-3.065-7.017-6.13-10.526-9.195c-0.462-0.404-1.131-0.448-1.591,0
				c-3.625,3.534-7.25,7.068-10.874,10.602c0.53,0,1.061,0,1.591,0c-3.935-3.186-7.87-6.371-11.805-9.557
				c-0.455-0.368-1.147-0.487-1.591,0c-3.071,3.368-6.142,6.737-9.214,10.105c0.53,0,1.061,0,1.591,0
				c-3.788-3.052-7.577-6.104-11.365-9.156c-0.456-0.367-1.147-0.487-1.591,0c-3.071,3.368-6.143,6.737-9.214,10.105
				c0.53,0,1.061,0,1.591,0c-3.789-3.052-7.577-6.104-11.366-9.156c-0.505-0.407-1.083-0.428-1.591,0
				c-3.921,3.304-7.762,7.457-12.093,10.189c0.935-0.59,1.293,0.417,0.733-0.549c-0.207-0.356-0.876-0.655-1.2-0.897
				c-1.312-0.98-2.624-1.96-3.936-2.94c-2.167-1.619-4.334-3.237-6.501-4.856c-0.415-0.31-1.015-0.127-1.363,0.176
				c-1.956,1.704-3.911,3.407-5.867,5.111c-1.345,1.171-2.689,2.342-4.034,3.514c-0.286,0.249-1.132,0.804-1.329,1.158
				c-0.544,0.977-0.969-0.624,0.794,0.221c-4.829-2.316-9.323-6.07-13.82-8.998c-0.433-0.282-1.003-0.149-1.363,0.176
				c-2.009,1.811-4.017,3.622-6.026,5.433c-1.216,1.097-2.432,2.193-3.649,3.29c-0.414,0.373-0.877,0.724-1.255,1.132
				c-0.751,0.809,0.824,0.067,0.825,0.067c-4.633-2.526-8.93-6.008-13.312-8.956c-0.409-0.275-1.028-0.162-1.363,0.176
				c-3.351,3.381-6.703,6.762-10.054,10.144c0.53,0,1.061,0,1.591,0c-3.928-3.046-7.857-6.091-11.785-9.137
				c-0.513-0.398-1.076-0.434-1.591,0c-4.051,3.414-8.103,6.827-12.154,10.24c0.53,0,1.061,0,1.591,0
				c-3.928-3.046-7.857-6.091-11.785-9.137c-0.525-0.407-1.061-0.419-1.591,0c-4.112,3.253-8.315,7.789-12.934,10.231
				c0.901-0.476,1.348,0.35,0.742-0.518c-0.282-0.404-1.092-0.76-1.478-1.028c-1.495-1.04-2.989-2.081-4.484-3.121
				c-2.174-1.513-4.348-3.026-6.522-4.539c-0.433-0.301-1-0.13-1.363,0.176c-2.026,1.707-4.051,3.414-6.077,5.12
				c-1.393,1.173-2.785,2.347-4.178,3.52c-0.303,0.255-1.162,0.797-1.377,1.16c-0.574,0.969-0.949-0.598,0.776,0.222
				c-4.831-2.296-9.329-6.074-13.82-8.998c-0.414-0.269-1.025-0.166-1.363,0.176c-1.676,1.691-3.352,3.381-5.027,5.072
				c-1.185,1.195-2.702,2.383-3.705,3.738c-1.43,1.931-0.956,0.178-0.115,1.045c-3.398-3.502-8.498-6.124-12.469-8.986
				c-0.421-0.304-1.01-0.132-1.363,0.176c-1.956,1.703-3.911,3.407-5.867,5.111c-1.345,1.171-2.689,2.342-4.034,3.514
				c-0.37,0.322-1.063,0.726-1.329,1.158c-0.647,1.048-0.075-0.336,0.708,0.168c-4.69-3.018-9.436-5.951-14.153-8.925
				c-0.396-0.25-1.046-0.188-1.363,0.176c-1.57,1.801-3.141,3.602-4.711,5.403c-0.94,1.078-2.617,2.424-3.248,3.724
				c-0.13,0.267-0.492,0.59-0.695,0.797c-0.132,0.134,1.648,0.369,0.82-0.276c-4.18-3.26-9.037-5.884-13.483-8.778
				c-0.42-0.273-1.018-0.161-1.363,0.176c-3.625,3.534-7.25,7.068-10.875,10.602C108.677,666.885,110.268,668.475,111.306,667.464z"
				/>
		</g>
	</g>
	<g id="XMLID_3_">
		<path id="XMLID_34_" style="fill:#FFFFFF;" d="M100.741,659.594L100.741,659.594l11.528-9.888l13.281,9.906l9.419-9.505
			l13.701,9.914l12.361-9.453l12.019,9.884l10.681-9.483l13.281,9.906l12.782-9.445l12.44,9.891l13.623-9.431l11.179,9.869
			l12.782-9.445l11.179,9.869l10.68-9.483l12.861,9.899l11.941-9.46l13.28,9.906l12.361-9.453l11.6,9.877l12.782-9.445l10.759,9.862
			l9.839-9.497l10.759,9.862l9.839-9.497l11.172,10.29l11.528-9.888l9.919,9.847l12.354-9.033l10.346,9.434l12.789-9.866
			l16.215,10.379l7.52-425.202c0.211-11.956-9.31-21.82-21.266-22.032L130.3,212.705c-11.956-0.211-21.82,9.31-22.032,21.266
			L100.741,659.594z"/>
		<g id="XMLID_29_">
			<path id="XMLID_33_" style="fill:#C9C9C9;" d="M101.537,660.389c2.047-1.755,4.093-3.511,6.14-5.266
				c1.239-1.063,2.478-2.126,3.718-3.189c0.424-0.363,0.881-0.706,1.279-1.097c0.798-0.785-0.876-0.083-0.82-0.047
				c4.574,2.888,8.791,6.557,13.129,9.793c0.392,0.293,1.04,0.15,1.363-0.176c1.793-1.809,3.586-3.619,5.379-5.428
				c0.916-0.924,2.478-2.034,3.145-3.174c0.142-0.243,0.6-0.633,0.833-0.841c-1.531,1.359-1.45-0.45-0.796,0.479
				c1.397,1.985,5.189,3.755,7.134,5.162c2.021,1.462,4.041,2.924,6.062,4.386c0.289,0.209,0.849,0.22,1.136,0
				c2.06-1.576,4.12-3.151,6.181-4.726c1.315-1.005,2.63-2.011,3.944-3.016c0.373-0.285,2.917-1.876,1.554-1.749
				c-1.086,0.101,0.434,0.78,1.197,1.407c1.377,1.133,2.754,2.265,4.132,3.398c2.003,1.647,4.006,3.295,6.01,4.942
				c0.491,0.404,1.099,0.437,1.591,0c1.901-1.688,3.802-3.376,5.703-5.064c1.168-1.037,2.506-2.028,3.573-3.172
				c0.35-0.375,0.802-0.654,1.156-1.026c0.369-0.388-1.185-0.184-0.873,0.135c3.651,3.735,8.844,6.597,13.039,9.726
				c0.288,0.215,0.847,0.213,1.136,0c2.13-1.574,4.261-3.148,6.391-4.723c1.359-1.005,2.719-2.009,4.078-3.014
				c0.381-0.282,2.99-1.865,1.63-1.748c-1.096,0.094,0.501,0.803,1.263,1.409c1.425,1.133,2.851,2.267,4.276,3.4
				c2.073,1.649,4.147,3.297,6.22,4.946c0.371,0.295,0.926,0.479,1.363,0.176c4.446-3.078,8.788-6.621,13.468-9.323
				c-1.108,0.64-1.33-0.793,0.148,0.913c1.097,1.267,2.613,2.306,3.87,3.417c1.985,1.752,3.969,3.504,5.954,5.256
				c0.343,0.302,0.952,0.48,1.363,0.176c4.234-3.129,8.574-6.151,12.717-9.398c-0.712,0.558-1.441-0.919-0.778,0.236
				c0.214,0.373,0.781,0.69,1.099,0.971c1.202,1.061,2.403,2.122,3.605,3.183c1.985,1.752,3.969,3.504,5.954,5.256
				c0.476,0.42,1.112,0.425,1.591,0c1.901-1.688,3.802-3.376,5.703-5.064c1.168-1.037,2.506-2.028,3.573-3.172
				c0.35-0.375,0.806-0.651,1.155-1.026c0.365-0.392-1.171-0.176-0.881,0.135c3.474,3.727,8.58,6.604,12.628,9.719
				c0.423,0.326,1.004,0.109,1.363-0.176c2.12-1.68,4.24-3.359,6.36-5.038c1.284-1.017,2.567-2.034,3.851-3.051
				c0.44-0.349,0.902-0.68,1.325-1.05c0.856-0.748-0.904-0.095-0.806-0.032c4.564,2.916,8.785,6.553,13.129,9.793
				c0.285,0.212,0.852,0.217,1.136,0c4.092-3.129,8.319-6.135,12.299-9.405c-0.697,0.572-1.467-0.93-0.76,0.237
				c0.229,0.377,0.809,0.689,1.141,0.971c1.247,1.062,2.494,2.123,3.741,3.185c2.059,1.753,4.119,3.507,6.178,5.26
				c0.349,0.297,0.947,0.484,1.363,0.176c4.057-2.998,9.11-5.728,12.624-9.329c-0.798,0.818-1.385-0.899,0.209,1.004
				c1.012,1.207,2.435,2.232,3.599,3.299c1.915,1.755,3.83,3.511,5.745,5.266c0.454,0.416,1.138,0.438,1.591,0
				c3.28-3.166,6.559-6.332,9.839-9.497c-0.53,0-1.061,0-1.591,0c3.586,3.287,7.173,6.575,10.759,9.862
				c0.454,0.416,1.138,0.438,1.591,0c3.28-3.166,6.559-6.332,9.839-9.497c-0.53,0-1.061,0-1.591,0
				c3.724,3.43,7.448,6.86,11.172,10.29c0.473,0.435,1.113,0.41,1.591,0c3.843-3.296,7.685-6.592,11.528-9.888
				c-0.53,0-1.061,0-1.591,0c3.306,3.282,6.612,6.565,9.919,9.847c0.324,0.322,0.966,0.467,1.363,0.176
				c3.943-2.883,7.935-6.79,12.286-8.983c-1.183,0.596-1.33-0.529,0.065,1.015c1.133,1.253,2.566,2.34,3.813,3.477
				c1.724,1.572,3.449,3.145,5.173,4.717c0.331,0.302,0.964,0.484,1.363,0.176c2.259-1.743,4.519-3.486,6.778-5.229
				c1.496-1.154,3.362-2.247,4.681-3.611c0.254-0.263,0.769-0.648,1.098-0.847c0.662-0.402-1.46-0.417-0.55,0.046
				c5.51,2.808,10.649,6.816,15.863,10.153c0.737,0.472,1.678-0.15,1.693-0.971c0.491-27.75,0.982-55.5,1.472-83.25
				c1.009-57.032,2.017-114.064,3.026-171.096c0.854-48.291,1.708-96.582,2.562-144.872c0.152-8.613,0.529-17.257,0.458-25.872
				c-0.106-12.833-9.787-22.739-22.58-23.272c-3.231-0.135-6.476-0.115-9.708-0.172c-46.06-0.815-92.12-1.629-138.18-2.444
				c-52.953-0.936-105.906-1.873-158.859-2.809c-10.306-0.182-20.65-0.638-30.958-0.548c-12.867,0.113-22.708,9.847-23.241,22.641
				c-0.116,2.78-0.099,5.572-0.148,8.354c-0.712,40.274-1.425,80.548-2.137,120.821c-1.037,58.653-2.075,117.306-3.112,175.959
				c-0.675,38.154-1.35,76.308-2.024,114.461c-0.034,1.925-0.068,3.851-0.102,5.776c-0.026,1.448,2.224,1.449,2.25,0
				c0.478-27.027,0.956-54.055,1.434-81.082c0.996-56.341,1.993-112.683,2.989-169.024c0.857-48.455,1.714-96.909,2.571-145.364
				c0.174-9.818,0.247-19.644,0.521-29.46c0.333-11.917,9.303-20.716,21.234-20.828c3.44-0.032,6.892,0.122,10.331,0.183
				c45.481,0.804,90.962,1.609,136.443,2.413c52.669,0.931,105.338,1.863,158.007,2.794c10.84,0.192,21.735,0.081,32.566,0.576
				c11.999,0.548,20.536,9.746,20.442,21.701c-0.026,3.262-0.115,6.524-0.173,9.786c-0.727,41.087-1.453,82.173-2.18,123.26
				c-1.024,57.885-2.048,115.77-3.071,173.654c-0.661,37.393-1.323,74.786-1.984,112.179c-0.033,1.845-0.065,3.689-0.098,5.534
				c0.564-0.324,1.129-0.648,1.693-0.971c-5.405-3.46-10.81-6.919-16.215-10.379c-0.303-0.194-0.837-0.23-1.136,0
				c-4.006,3.09-9.154,5.96-12.557,9.687c0.678-0.742,1.242,1.108,0-0.676c-0.795-1.142-2.315-2.111-3.338-3.044
				c-1.959-1.786-3.918-3.572-5.876-5.358c-0.339-0.309-0.954-0.475-1.363-0.176c-3.959,2.894-8.654,5.523-12.188,8.911
				c0.69-0.662,1.379,0.938,0.016-0.875c-0.932-1.24-2.323-2.307-3.425-3.4c-1.771-1.758-3.542-3.517-5.313-5.275
				c-0.455-0.452-1.128-0.398-1.591,0c-3.843,3.296-7.685,6.592-11.528,9.888c0.53,0,1.061,0,1.591,0
				c-3.724-3.43-7.448-6.86-11.172-10.29c-0.453-0.417-1.138-0.437-1.591,0c-3.28,3.166-6.559,6.332-9.839,9.497
				c0.53,0,1.061,0,1.591,0c-3.586-3.287-7.173-6.575-10.759-9.862c-0.454-0.416-1.138-0.438-1.591,0
				c-3.28,3.166-6.559,6.332-9.839,9.497c0.53,0,1.061,0,1.591,0c-3.586-3.287-7.173-6.575-10.759-9.862
				c-0.336-0.308-0.957-0.476-1.363-0.176c-4.237,3.131-8.541,6.187-12.717,9.398c0.711-0.547,1.463,0.912,0.758-0.237
				c-0.232-0.378-0.807-0.687-1.141-0.971c-1.247-1.062-2.494-2.123-3.741-3.185c-2.059-1.753-4.119-3.507-6.178-5.26
				c-0.343-0.292-0.953-0.49-1.363-0.176c-2.06,1.576-4.12,3.151-6.181,4.726c-1.416,1.083-2.833,2.166-4.249,3.249
				c-1.297,0.992-2.287,0.947-0.858,1.431c-2.352-0.796-4.999-3.729-6.976-5.204c-2.081-1.552-4.161-3.104-6.242-4.656
				c-0.43-0.32-0.999-0.112-1.363,0.176c-2.12,1.68-4.24,3.359-6.36,5.038c-1.284,1.017-2.567,2.034-3.851,3.051
				c-0.44,0.349-0.904,0.678-1.325,1.05c-0.85,0.75,0.883,0.082,0.811,0.033c-4.403-2.982-8.499-6.541-12.714-9.786
				c-0.406-0.313-1.022-0.127-1.363,0.176c-3.56,3.161-7.12,6.322-10.68,9.483c0.53,0,1.061,0,1.591,0
				c-3.726-3.29-7.453-6.579-11.179-9.869c-0.343-0.302-0.952-0.48-1.363-0.176c-4.234,3.129-8.574,6.151-12.717,9.398
				c0.712-0.558,1.441,0.919,0.778-0.236c-0.214-0.373-0.781-0.69-1.099-0.971c-1.202-1.061-2.403-2.122-3.605-3.182
				c-1.985-1.752-3.969-3.504-5.954-5.256c-0.353-0.311-0.94-0.469-1.363-0.176c-4.52,3.129-9.025,6.28-13.56,9.386
				c0.662-0.454,1.535,0.839,0.765-0.205c-0.318-0.431-1.001-0.796-1.409-1.121c-1.425-1.133-2.851-2.267-4.276-3.4
				c-2.073-1.649-4.147-3.297-6.22-4.946c-0.36-0.286-0.938-0.49-1.363-0.176c-2.13,1.574-4.261,3.148-6.391,4.723
				c-1.465,1.082-2.929,2.165-4.394,3.247c-1.312,0.97-2.361,0.94-0.924,1.43c-2.354-0.801-4.995-3.726-6.976-5.204
				c-2.081-1.552-4.161-3.104-6.242-4.656c-0.412-0.307-1.018-0.13-1.363,0.176c-3.56,3.161-7.12,6.322-10.681,9.483
				c0.53,0,1.061,0,1.591,0c-4.007-3.295-8.013-6.589-12.019-9.884c-0.349-0.287-0.949-0.493-1.363-0.176
				c-2.06,1.576-4.12,3.151-6.181,4.726c-1.416,1.083-2.833,2.166-4.249,3.249c-0.465,0.355-0.951,0.695-1.4,1.071
				c-0.883,0.739,0.127,0.161,0.459,0.301c-2.471-1.044-4.936-3.571-7.1-5.137c-2.152-1.557-4.304-3.114-6.456-4.672
				c-0.397-0.287-1.037-0.153-1.363,0.176c-1.682,1.697-3.364,3.394-5.046,5.092c-1.023,1.033-2.735,2.246-3.478,3.51
				c-0.148,0.252-0.526,0.569-0.744,0.751c-0.102,0.085,1.57,0.392,0.828-0.31c-3.814-3.605-8.683-6.477-12.896-9.619
				c-0.417-0.311-1.012-0.125-1.363,0.176c-3.843,3.296-7.685,6.592-11.528,9.888C98.845,659.742,100.442,661.328,101.537,660.389z"
				/>
		</g>
	</g>
</g>
<g id="Layer_2">
	<g id="XMLID_54_">
		<line id="XMLID_146_" style="fill:#FFFFFF;" x1="312.723" y1="121.325" x2="329.771" y2="125.587"/>
		<g id="XMLID_141_">
			<path id="XMLID_145_" style="fill:#C8C8C8;" d="M311.128,127.111c5.683,1.421,11.365,2.841,17.048,4.262
				c7.493,1.873,10.69-9.696,3.19-11.571c-5.683-1.421-11.365-2.841-17.048-4.262C306.825,113.666,303.629,125.236,311.128,127.111
				L311.128,127.111z"/>
		</g>
	</g>
	<g id="XMLID_53_">
		<line id="XMLID_139_" style="fill:#FFFFFF;" x1="323.378" y1="114.932" x2="319.116" y2="131.98"/>
		<g id="XMLID_134_">
			<path id="XMLID_138_" style="fill:#C8C8C8;" d="M317.592,113.337c-1.421,5.683-2.841,11.365-4.262,17.048
				c-1.873,7.493,9.696,10.69,11.571,3.19c1.421-5.683,2.841-11.365,4.262-17.048C331.037,109.034,319.467,105.838,317.592,113.337
				L317.592,113.337z"/>
		</g>
	</g>
	<g id="XMLID_52_">
		<line id="XMLID_132_" style="fill:#FFFFFF;" x1="538.99" y1="284.008" x2="556.48" y2="285.714"/>
		<g id="XMLID_121_">
			<path id="XMLID_131_" style="fill:#C8C8C8;" d="M538.99,290.008c5.83,0.569,11.66,1.137,17.489,1.706c3.23,0.315,6-2.983,6-6
				c0-3.507-2.761-5.684-6-6c-5.83-0.569-11.66-1.137-17.489-1.706c-3.23-0.315-6,2.983-6,6
				C532.99,287.515,535.751,289.692,538.99,290.008L538.99,290.008z"/>
		</g>
	</g>
	<g id="XMLID_51_">
		<line id="XMLID_119_" style="fill:#FFFFFF;" x1="548.588" y1="276.117" x2="546.882" y2="293.606"/>
		<g id="XMLID_114_">
			<path id="XMLID_118_" style="fill:#C8C8C8;" d="M542.588,276.117c-0.569,5.83-1.137,11.66-1.706,17.489c-0.315,3.23,2.983,6,6,6
				c3.507,0,5.684-2.761,6-6c0.569-5.83,1.137-11.66,1.706-17.489c0.315-3.23-2.983-6-6-6
				C545.081,270.117,542.904,272.878,542.588,276.117L542.588,276.117z"/>
		</g>
	</g>
	<g id="XMLID_38_">
		<line id="XMLID_112_" style="fill:#FFFFFF;" x1="524.672" y1="465.554" x2="545.783" y2="467.614"/>
		<g id="XMLID_107_">
			<path id="XMLID_111_" style="fill:#C8C8C8;" d="M524.672,471.554c7.037,0.686,14.074,1.373,21.11,2.059
				c7.681,0.749,7.629-11.256,0-12c-7.037-0.686-14.074-1.373-21.11-2.059C516.991,458.805,517.043,470.81,524.672,471.554
				L524.672,471.554z"/>
		</g>
	</g>
	<g id="XMLID_37_">
		<line id="XMLID_140_" style="fill:#FFFFFF;" x1="536.257" y1="456.029" x2="534.198" y2="477.139"/>
		<g id="XMLID_124_">
			<path id="XMLID_133_" style="fill:#C8C8C8;" d="M530.257,456.029c-0.686,7.037-1.373,14.074-2.059,21.11
				c-0.749,7.681,11.256,7.629,12,0c0.686-7.037,1.373-14.074,2.059-21.11C543.006,448.348,531.001,448.4,530.257,456.029
				L530.257,456.029z"/>
		</g>
	</g>
	<g id="XMLID_36_">
		<line id="XMLID_105_" style="fill:#FFFFFF;" x1="514.31" y1="169.774" x2="525.509" y2="166.6"/>
		<g id="XMLID_100_">
			<path id="XMLID_104_" style="fill:#C8C8C8;" d="M515.905,175.559c3.733-1.058,7.466-2.116,11.199-3.174
				c3.117-0.884,5.054-4.24,4.191-7.381c-0.857-3.117-4.252-5.077-7.381-4.191c-3.733,1.058-7.466,2.116-11.199,3.174
				c-3.117,0.884-5.054,4.24-4.191,7.381C509.381,174.486,512.776,176.446,515.905,175.559L515.905,175.559z"/>
		</g>
	</g>
	<g id="XMLID_35_">
		<line id="XMLID_98_" style="fill:#FFFFFF;" x1="518.322" y1="162.587" x2="521.497" y2="173.786"/>
		<g id="XMLID_93_">
			<path id="XMLID_97_" style="fill:#C8C8C8;" d="M512.537,164.182c1.058,3.733,2.116,7.466,3.174,11.199
				c0.884,3.117,4.24,5.054,7.381,4.191c3.117-0.857,5.078-4.252,4.191-7.381c-1.058-3.733-2.116-7.466-3.174-11.199
				c-0.884-3.117-4.24-5.054-7.381-4.191C513.61,157.658,511.65,161.054,512.537,164.182L512.537,164.182z"/>
		</g>
	</g>
	<g id="XMLID_14_">
		<line id="XMLID_91_" style="fill:#FFFFFF;" x1="61.648" y1="375.803" x2="82.029" y2="369.927"/>
		<g id="XMLID_86_">
			<path id="XMLID_90_" style="fill:#C8C8C8;" d="M63.243,381.589c6.793-1.959,13.587-3.917,20.38-5.876
				c7.406-2.135,4.257-13.718-3.19-11.571c-6.793,1.959-13.587,3.917-20.38,5.876C52.647,372.153,55.797,383.736,63.243,381.589
				L63.243,381.589z"/>
		</g>
	</g>
	<g id="XMLID_13_">
		<line id="XMLID_84_" style="fill:#FFFFFF;" x1="68.9" y1="362.675" x2="74.776" y2="383.055"/>
		<g id="XMLID_79_">
			<path id="XMLID_83_" style="fill:#C8C8C8;" d="M63.115,364.27c1.959,6.793,3.917,13.587,5.876,20.38
				c2.135,7.406,13.718,4.257,11.571-3.19c-1.959-6.793-3.917-13.587-5.876-20.38C72.551,353.673,60.968,356.823,63.115,364.27
				L63.115,364.27z"/>
		</g>
	</g>
	<g id="XMLID_9_">
		<line id="XMLID_77_" style="fill:#FFFFFF;" x1="30.044" y1="478.61" x2="46.598" y2="480.225"/>
		<g id="XMLID_72_">
			<path id="XMLID_76_" style="fill:#C8C8C8;" d="M30.044,484.61c5.518,0.538,11.036,1.077,16.555,1.615c3.23,0.315,6-2.983,6-6
				c0-3.507-2.761-5.684-6-6c-5.518-0.538-11.036-1.077-16.555-1.615c-3.23-0.315-6,2.983-6,6
				C24.044,482.117,26.805,484.294,30.044,484.61L30.044,484.61z"/>
		</g>
	</g>
	<g id="XMLID_8_">
		<line id="XMLID_70_" style="fill:#FFFFFF;" x1="39.128" y1="471.14" x2="37.513" y2="487.694"/>
		<g id="XMLID_64_">
			<path id="XMLID_68_" style="fill:#C8C8C8;" d="M33.128,471.14c-0.538,5.518-1.077,11.036-1.615,16.555c-0.315,3.23,2.983,6,6,6
				c3.507,0,5.684-2.761,6-6c0.538-5.518,1.077-11.036,1.615-16.555c0.315-3.23-2.983-6-6-6
				C35.621,465.14,33.444,467.901,33.128,471.14L33.128,471.14z"/>
		</g>
	</g>
	<g id="XMLID_7_">
		<line id="XMLID_62_" style="fill:#FFFFFF;" x1="66.992" y1="682.092" x2="82.561" y2="683.611"/>
		<g id="XMLID_57_">
			<path id="XMLID_61_" style="fill:#C8C8C8;" d="M66.992,688.092c5.19,0.506,10.379,1.012,15.569,1.519c3.23,0.315,6-2.983,6-6
				c0-3.507-2.761-5.684-6-6c-5.19-0.506-10.379-1.012-15.569-1.519c-3.23-0.315-6,2.983-6,6
				C60.992,685.599,63.753,687.776,66.992,688.092L66.992,688.092z"/>
		</g>
	</g>
	<g id="XMLID_6_">
		<line id="XMLID_55_" style="fill:#FFFFFF;" x1="75.536" y1="675.067" x2="74.017" y2="690.636"/>
		<g id="XMLID_46_">
			<path id="XMLID_50_" style="fill:#C8C8C8;" d="M69.536,675.067c-0.506,5.19-1.012,10.379-1.519,15.569c-0.315,3.23,2.983,6,6,6
				c3.507,0,5.684-2.761,6-6c0.506-5.19,1.012-10.379,1.519-15.569c0.315-3.23-2.983-6-6-6
				C72.029,669.067,69.852,671.828,69.536,675.067L69.536,675.067z"/>
		</g>
	</g>
	<g id="XMLID_40_">
		<path id="XMLID_113_" style="fill:#FEE000;" d="M283.084,254.795h28.012l0.303-1.984c0-0.017,0-0.034,0-0.05
			c0-0.118-0.067-0.252-0.185-0.353c-0.151-0.151-0.37-0.269-0.605-0.303c-0.05,0-0.101,0-0.151,0h-26.079l1.328-2.758h24.75
			c0.185,0,0.353,0.017,0.538,0.05c0.807,0.118,1.581,0.504,2.152,1.059c0.622,0.605,1.009,1.412,1.009,2.32
			c0,0.135,0,0.286-0.034,0.437l-2.757,18.579c-0.135,0.942-0.555,1.816-1.177,2.438c-0.639,0.639-1.48,1.026-2.472,1.026h-0.135
			h-23.59h-13.72h-2.186l0.942-1.967l11.837-24.885h-10.895v-2.757h13.064h2.186l-0.925,1.967l-11.854,24.902h11.551h23.556h0.134
			c0.219,0,0.387-0.084,0.521-0.219c0.219-0.219,0.353-0.538,0.404-0.891l1.379-9.214h-30.484L283.084,254.795z M285.304,268.179
			h17.52c0.42,0,0.757,0.336,0.757,0.773l0,0c0,0.42-0.353,0.773-0.757,0.773h-17.52c-0.42,0-0.757-0.336-0.757-0.773l0,0
			C284.547,268.516,284.883,268.179,285.304,268.179z M299.848,264.026h3.363c0.42,0,0.773,0.336,0.773,0.773l0,0
			c0,0.42-0.353,0.773-0.773,0.773h-3.363c-0.42,0-0.773-0.336-0.773-0.773l0,0C299.074,264.379,299.427,264.026,299.848,264.026z
			 M287.91,264.026h8.878c0.42,0,0.773,0.336,0.773,0.773l0,0c0,0.42-0.353,0.773-0.773,0.773h-8.878
			c-0.42,0-0.773-0.336-0.773-0.773l0,0C287.136,264.379,287.49,264.026,287.91,264.026z"/>
	</g>
	<g id="XMLID_157_">
		<path id="XMLID_175_" style="fill:#C9C9C9;" d="M251.542,314.594c-0.691,0-1.232-0.035-1.622-0.105
			c-0.391-0.07-0.683-0.214-0.876-0.432c-0.193-0.218-0.313-0.524-0.358-0.919c-0.045-0.395-0.068-0.921-0.068-1.579v-11.684h-3.072
			v11.684c0,0.691,0.023,1.322,0.068,1.894c0.045,0.572,0.138,1.084,0.278,1.536c0.14,0.452,0.343,0.847,0.611,1.184
			c0.267,0.337,0.623,0.615,1.067,0.833c0.444,0.218,0.991,0.382,1.641,0.494c0.65,0.111,1.427,0.167,2.332,0.167V314.594z"/>
		<path id="XMLID_172_" style="fill:#C9C9C9;" d="M260.77,305.921l1.283,1.592c0.617,0.765,1.184,1.47,1.703,2.116
			c0.518,0.646,0.952,1.236,1.302,1.77c0.35,0.535,0.605,1.014,0.765,1.437c0.16,0.424,0.195,0.788,0.105,1.092
			c-0.099,0.321-0.245,0.58-0.438,0.777c-0.193,0.197-0.415,0.352-0.666,0.463c-0.251,0.111-0.516,0.185-0.796,0.222
			c-0.28,0.037-0.547,0.056-0.802,0.056c-0.255,0-0.518-0.035-0.79-0.105c-0.271-0.07-0.535-0.146-0.79-0.228
			c0.255-0.255,0.485-0.514,0.691-0.777c0.206-0.263,0.378-0.541,0.518-0.833c0.14-0.292,0.249-0.602,0.327-0.931
			c0.078-0.329,0.117-0.691,0.117-1.086c0-0.485-0.109-1.007-0.327-1.567c-0.218-0.559-0.539-1.08-0.962-1.561
			c-0.424-0.481-0.946-0.88-1.567-1.197c-0.621-0.317-1.331-0.475-2.128-0.475c-0.708,0-1.368,0.113-1.98,0.339
			c-0.613,0.226-1.147,0.541-1.604,0.944c-0.456,0.403-0.814,0.888-1.073,1.456c-0.259,0.568-0.389,1.189-0.389,1.863
			c0,0.354,0.031,0.677,0.093,0.969c0.062,0.292,0.152,0.568,0.271,0.827c0.119,0.259,0.263,0.506,0.432,0.74
			c0.168,0.234,0.36,0.475,0.574,0.722c-0.197,0.025-0.376,0.041-0.537,0.049c-0.16,0.008-0.321,0.012-0.481,0.012
			c-0.16,0-0.329-0.002-0.506-0.006c-0.177-0.004-0.381-0.006-0.611-0.006h-1.394v3.072h1.394c1.16,0,2.219-0.056,3.177-0.167
			c0.958-0.111,1.832-0.286,2.622-0.524c0.09,0.049,0.201,0.105,0.333,0.167c0.131,0.062,0.259,0.121,0.382,0.179
			c0.14,0.066,0.284,0.132,0.432,0.197c0.658,0.329,1.304,0.553,1.937,0.672c0.633,0.119,1.246,0.179,1.838,0.179
			c0.699,0,1.341-0.082,1.925-0.247c0.584-0.165,1.102-0.395,1.555-0.691c0.452-0.296,0.837-0.65,1.154-1.061
			c0.317-0.411,0.557-0.864,0.722-1.357c0.271-0.798,0.331-1.602,0.179-2.412c-0.152-0.81-0.483-1.556-0.993-2.239
			c-0.239-0.313-0.485-0.642-0.74-0.987c-0.255-0.345-0.516-0.693-0.783-1.043c-0.267-0.35-0.531-0.693-0.79-1.03
			c-0.259-0.337-0.504-0.662-0.734-0.975c-0.551-0.724-1.094-1.439-1.629-2.147L260.77,305.921z M256.353,310.584
			c0.115-0.222,0.271-0.417,0.469-0.586c0.197-0.168,0.426-0.302,0.685-0.401c0.259-0.099,0.528-0.148,0.808-0.148
			c0.189,0,0.405,0.041,0.648,0.123c0.243,0.082,0.471,0.21,0.685,0.382c0.214,0.173,0.395,0.391,0.543,0.654
			c0.148,0.263,0.222,0.568,0.222,0.913c0,0.288-0.054,0.551-0.16,0.79c-0.107,0.239-0.249,0.455-0.426,0.648
			c-0.177,0.193-0.385,0.368-0.623,0.524c-0.239,0.156-0.485,0.296-0.74,0.419c-0.378-0.206-0.709-0.401-0.993-0.586
			c-0.284-0.185-0.522-0.376-0.716-0.574c-0.193-0.197-0.337-0.413-0.432-0.648c-0.095-0.234-0.142-0.504-0.142-0.808
			C256.181,311.041,256.238,310.806,256.353,310.584z"/>
		<path id="XMLID_168_" style="fill:#C9C9C9;" d="M300.671,309.141v4.059c0,0.403-0.095,0.712-0.284,0.925
			c-0.156,0.165-0.395,0.29-0.716,0.376c-0.321,0.086-0.707,0.13-1.16,0.13h-14.127c-0.148,0-0.317-0.02-0.506-0.062
			c-0.189-0.041-0.364-0.125-0.524-0.253c-0.16-0.127-0.296-0.313-0.407-0.555c-0.111-0.243-0.167-0.561-0.167-0.956
			c0-0.222,0.025-0.485,0.074-0.79c0.049-0.304,0.111-0.621,0.185-0.95c0.074-0.329,0.152-0.648,0.234-0.956
			c0.082-0.308,0.16-0.574,0.234-0.796l-1.456-0.456l-1.468-0.469c-0.025,0.074-0.082,0.267-0.173,0.58
			c-0.091,0.313-0.187,0.683-0.29,1.11c-0.103,0.428-0.195,0.882-0.278,1.363c-0.082,0.481-0.123,0.927-0.123,1.339
			c0,0.477,0.045,0.907,0.136,1.289c0.09,0.382,0.206,0.726,0.345,1.03c0.14,0.304,0.298,0.568,0.475,0.79
			c0.177,0.222,0.347,0.411,0.512,0.568c0.419,0.395,0.901,0.695,1.444,0.901c0.543,0.206,1.118,0.308,1.727,0.308h14.238
			c1.538-0.008,2.755-0.387,3.652-1.135c0.23,0.214,0.494,0.395,0.79,0.543c0.296,0.148,0.602,0.265,0.919,0.352
			c0.317,0.086,0.633,0.148,0.95,0.185c0.317,0.037,0.615,0.056,0.894,0.056h0.765v-3.072h-0.765c-0.058,0-0.146-0.006-0.265-0.018
			c-0.119-0.012-0.257-0.039-0.413-0.08c-0.156-0.041-0.317-0.101-0.481-0.179c-0.165-0.078-0.315-0.185-0.45-0.321
			c-0.136-0.136-0.247-0.304-0.333-0.506c-0.086-0.201-0.13-0.446-0.13-0.734v-3.615H300.671z M296.303,306.007l-2.122-2.122
			l-2.048,2.122l2.073,2.097L296.303,306.007z M291.121,306.019l-2.122-2.122l-2.036,2.122l2.073,2.097L291.121,306.019z"/>
		<path id="XMLID_166_" style="fill:#C9C9C9;" d="M321.941,314.594h-0.37c-0.526,0-0.999-0.084-1.419-0.253
			c-0.419-0.168-0.82-0.413-1.203-0.734c-0.382-0.321-0.763-0.713-1.141-1.178c-0.378-0.465-0.794-0.997-1.246-1.598
			c-0.773-1.036-1.544-2.067-2.313-3.091c-0.769-1.024-1.54-2.054-2.313-3.091l9.364-4.331l-1.258-2.813l-10.709,5.194l-0.518,2.505
			c0.617,0.765,1.228,1.52,1.832,2.264c0.605,0.745,1.147,1.45,1.629,2.116c0.481,0.666,0.872,1.271,1.172,1.814
			c0.3,0.543,0.45,0.991,0.45,1.345c-0.025,0.345-0.136,0.638-0.333,0.876c-0.197,0.239-0.465,0.43-0.802,0.574
			c-0.337,0.144-0.736,0.247-1.197,0.308c-0.461,0.062-0.962,0.093-1.505,0.093h-4.022v3.072h3.849
			c0.617,0.016,1.242-0.023,1.875-0.117c0.633-0.094,1.228-0.253,1.783-0.475c0.555-0.222,1.049-0.514,1.481-0.876
			c0.432-0.362,0.746-0.802,0.944-1.32c0.37,0.419,0.734,0.8,1.092,1.141c0.358,0.341,0.75,0.633,1.178,0.876
			c0.428,0.243,0.909,0.432,1.444,0.568c0.535,0.136,1.164,0.204,1.888,0.204h0.37V314.594z"/>
		<path id="XMLID_162_" style="fill:#C9C9C9;" d="M333.243,314.594c-0.074,0-0.214-0.01-0.42-0.031
			c-0.206-0.02-0.413-0.082-0.623-0.185c-0.21-0.103-0.397-0.259-0.561-0.469c-0.165-0.21-0.247-0.5-0.247-0.87v-3.911h-3.06v3.997
			c0,0.165-0.023,0.333-0.068,0.506c-0.045,0.173-0.144,0.329-0.296,0.469c-0.152,0.14-0.378,0.257-0.679,0.352
			c-0.3,0.095-0.701,0.142-1.203,0.142h-4.269v3.072h4.269c0.806,0,1.524-0.091,2.153-0.271c0.629-0.181,1.174-0.465,1.635-0.851
			c0.395,0.37,0.88,0.65,1.456,0.839c0.576,0.189,1.213,0.284,1.912,0.284h1.826v-3.072H333.243z M332.145,322.354l-2.122-2.122
			l-2.048,2.122l2.073,2.097L332.145,322.354z M326.963,322.367l-2.122-2.122l-2.036,2.122l2.073,2.097L326.963,322.367z"/>
		<path id="XMLID_158_" style="fill:#C9C9C9;" d="M340.954,308.178c0.033,0.123,0.078,0.298,0.136,0.524
			c0.057,0.226,0.115,0.477,0.173,0.753c0.057,0.276,0.117,0.568,0.179,0.876c0.062,0.308,0.117,0.611,0.167,0.907
			c0.049,0.296,0.088,0.574,0.117,0.833c0.029,0.259,0.043,0.479,0.043,0.66c0,0.436-0.07,0.779-0.21,1.03
			c-0.14,0.251-0.302,0.438-0.487,0.561c-0.185,0.123-0.37,0.2-0.555,0.228c-0.185,0.029-0.327,0.043-0.426,0.043h-5.404v3.072
			h5.318c0.568,0,1.133-0.099,1.696-0.296c0.563-0.197,1.071-0.498,1.524-0.901c0.452-0.403,0.818-0.915,1.098-1.536
			c0.28-0.621,0.419-1.355,0.419-2.202c0-0.271-0.019-0.588-0.056-0.95c-0.037-0.362-0.086-0.734-0.148-1.117
			c-0.062-0.382-0.128-0.763-0.197-1.141c-0.07-0.378-0.138-0.722-0.204-1.03c-0.066-0.308-0.125-0.569-0.179-0.783
			c-0.054-0.214-0.088-0.349-0.105-0.407L340.954,308.178z M344.729,302.799l-2.122-2.122l-2.048,2.122l2.073,2.097L344.729,302.799
			z M339.547,302.811l-2.122-2.122l-2.036,2.122l2.073,2.097L339.547,302.811z"/>
	</g>
	<g id="XMLID_190_">
		<path id="XMLID_191_" style="fill:#FEDA00;" d="M322.024,500.51c2.318-7.46,5.789-12.648,10.41-15.562l12.442-6.626
			c10.378-5.915,16.831-13.128,19.356-21.639c2.827-9.531,2.104-17.841-2.168-24.929c-4.274-7.087-11.661-12.19-22.166-15.306
			c-10.212-3.03-19.208-2.762-26.984,0.804c-7.778,3.566-13.11,9.948-15.997,19.143l19.039,5.648
			c1.284-4.328,3.674-7.349,7.173-9.063c3.497-1.713,7.508-1.899,12.031-0.558c4.668,1.385,7.835,3.727,9.503,7.025
			c1.666,3.3,1.772,7.404,0.315,12.315c-1.096,3.696-3.167,6.838-6.21,9.428c-1.982,1.687-6.247,4.246-12.792,7.673
			c-6.547,3.429-11.293,6.941-14.238,10.538c-2.946,3.598-5.45,8.873-7.513,15.827L322.024,500.51z M296.314,527.248
			c1.27,2.494,3.632,4.252,7.085,5.276c3.452,1.024,6.403,0.842,8.853-0.548c2.449-1.389,4.099-3.519,4.951-6.389
			c0.88-2.966,0.648-5.707-0.696-8.222c-1.345-2.515-3.693-4.27-7.049-5.266c-3.308-0.981-6.203-0.808-8.686,0.519
			c-2.484,1.326-4.18,3.522-5.088,6.586C294.833,522.074,295.042,524.755,296.314,527.248z"/>
	</g>
	<g id="XMLID_186_">
		<path id="XMLID_187_" style="fill:#FEDA00;" d="M239.757,546.656c-1.772-6.362-1.595-11.658,0.53-15.886l4.929-8.646
			c4.784-8.94,6.161-17.056,4.13-24.35c-2.052-7.37-5.872-12.567-11.458-15.589c-5.586-3.022-12.317-3.436-20.192-1.243
			c-7.565,2.107-13.136,5.895-16.713,11.363c-3.578,5.47-4.465,11.59-2.663,18.361l11.522-3.208
			c-1.059-3.801-0.602-7.189,1.371-10.163c1.972-2.973,5.073-5.05,9.302-6.227c4.383-1.221,8.065-0.908,11.046,0.937
			c2.98,1.846,5.081,4.96,6.301,9.344c1.264,4.539,0.701,9.273-1.689,14.202l-5.855,10.723c-2.248,4.388-3.483,8.171-3.706,11.347
			c-0.223,3.177,0.299,7.264,1.565,12.262L239.757,546.656z M236.234,573.973c1.489,0.923,3.36,1.071,5.61,0.444
			c2.249-0.626,3.784-1.723,4.602-3.288c0.818-1.565,0.968-3.28,0.45-5.142c-0.519-1.862-1.538-3.271-3.058-4.227
			s-3.406-1.121-5.656-0.494c-2.25,0.626-3.77,1.739-4.557,3.338c-0.788,1.599-0.923,3.33-0.404,5.192
			C233.739,571.657,234.743,573.05,236.234,573.973z"/>
	</g>
	<g id="XMLID_182_">
		<path id="XMLID_183_" style="fill:#C9C9C9;" d="M268.119,452.102c-2.131-7.662-1.368-14.172,2.291-19.53
			c4.312-6.986,6.957-12.774,7.935-17.366c0.978-4.59,0.83-9.177-0.444-13.759c-2.032-7.306-5.755-12.505-11.167-15.595
			c-5.413-3.09-11.772-3.619-19.079-1.587c-7.109,1.977-12.402,5.705-15.879,11.182c-3.477,5.478-4.288,11.703-2.433,18.676
			l7.583-2.109c-1.294-4.959-0.787-9.333,1.52-13.124c2.307-3.79,6.008-6.394,11.104-7.811c5.055-1.406,9.418-0.981,13.088,1.275
			c3.669,2.257,6.241,6.03,7.713,11.322c0.736,2.646,1.054,5.09,0.953,7.33c-0.101,2.241-0.514,4.387-1.241,6.44
			c-0.727,2.053-2.607,5.736-5.64,11.047c-3.034,5.312-4.769,9.667-5.207,13.065c-0.438,3.399,0.001,7.617,1.318,12.654
			L268.119,452.102z M267.787,478.906c1.177,0.715,2.596,0.842,4.255,0.381c1.619-0.45,2.768-1.291,3.447-2.522
			c0.679-1.231,0.826-2.538,0.441-3.921c-0.406-1.461-1.221-2.554-2.443-3.278c-1.222-0.723-2.644-0.861-4.263-0.41
			c-1.659,0.461-2.805,1.313-3.439,2.552c-0.634,1.241-0.747,2.591-0.341,4.052C265.828,477.143,266.609,478.191,267.787,478.906z"
			/>
	</g>
	<g id="XMLID_178_">
		<path id="XMLID_179_" style="fill:#C9C9C9;" d="M365.818,577.588c2.283-7.696,6.425-12.856,12.425-15.478
			c7.432-3.665,12.796-7.199,16.094-10.603c3.297-3.402,5.628-7.405,6.993-12.007c2.177-7.339,1.779-13.781-1.195-19.324
			c-2.974-5.544-8.131-9.404-15.47-11.581c-7.141-2.118-13.666-1.766-19.574,1.056c-5.91,2.823-9.939,7.713-12.089,14.671
			l7.617,2.26c1.55-4.935,4.327-8.405,8.333-10.412c4.004-2.006,8.566-2.25,13.684-0.732c5.078,1.506,8.582,4.208,10.512,8.104
			c1.93,3.897,2.107,8.502,0.53,13.818c-0.789,2.658-1.826,4.919-3.112,6.781c-1.287,1.863-2.791,3.478-4.512,4.844
			c-1.722,1.367-5.304,3.509-10.744,6.427c-5.441,2.918-9.26,5.713-11.455,8.385c-2.196,2.673-4.081,6.516-5.654,11.531
			L365.818,577.588z M351.17,600.338c0.624,1.243,1.769,2.111,3.436,2.606c1.626,0.482,3.06,0.379,4.3-0.31
			c1.24-0.689,2.067-1.728,2.479-3.117c0.435-1.467,0.324-2.839-0.334-4.113c-0.658-1.274-1.8-2.153-3.427-2.635
			c-1.666-0.494-3.103-0.38-4.309,0.34c-1.207,0.721-2.028,1.816-2.463,3.283C350.44,597.78,350.545,599.095,351.17,600.338z"/>
	</g>
	<g id="XMLID_173_">
		<path id="XMLID_174_" style="fill:#C9C9C9;" d="M287.579,595.643c0.143-4.357,1.302-7.657,3.477-9.899l4.815-4.469
			c4.782-4.683,7.255-9.522,7.419-14.517c0.166-5.047-1.211-9.076-4.13-12.084c-2.92-3.008-7.076-4.601-12.469-4.779
			c-5.181-0.17-9.438,1.113-12.773,3.848c-3.335,2.737-5.105,6.415-5.31,11.036l7.891,0.259c0.086-2.603,1.043-4.646,2.874-6.129
			c1.83-1.482,4.194-2.176,7.09-2.081c3.002,0.099,5.259,1.024,6.77,2.776c1.511,1.752,2.218,4.129,2.119,7.131
			c-0.102,3.108-1.394,5.978-3.874,8.609l-5.809,5.593c-2.284,2.319-3.81,4.456-4.579,6.412c-0.769,1.956-1.249,4.633-1.441,8.031
			L287.579,595.643z M279.955,612.148c0.755,0.876,1.904,1.339,3.445,1.39c1.54,0.051,2.724-0.336,3.549-1.16
			c0.825-0.824,1.258-1.874,1.301-3.149c0.042-1.275-0.321-2.364-1.089-3.267c-0.768-0.903-1.923-1.38-3.464-1.43
			c-1.541-0.051-2.718,0.349-3.53,1.2c-0.813,0.851-1.24,1.914-1.282,3.189C278.842,610.196,279.199,611.272,279.955,612.148z"/>
	</g>
</g>
</svg>
