<svg xmlns="http://www.w3.org/2000/svg" width="99" height="23" viewBox="0 0 99 23">
    <defs>
        <linearGradient id="zarin-logo-a" x1="100%" x2="0%" y1="100%" y2="0%">
            <stop offset="0%" stop-color="#FFE75A"/>
            <stop offset="100%" stop-color="#F7CB3D"/>
        </linearGradient>
    </defs>
    <g fill="none" fill-rule="evenodd" transform="translate(0 1)">
        <path fill="url(#zarin-logo-a)" fill-rule="nonzero"
              d="M0.456480601,0 L5.21084212,0 C5.613164,0 5.81819343,0.484257339 5.53579441,0.768662443 L0.793038333,5.53052628 C0.506770837,5.81877469 0.015473919,5.61892246 0.015473919,5.21537467 L2.50000021e-10,0.453510841 C2.50000021e-10,0.203695547 0.201160944,0 0.456480601,0 Z M16.5507544,17 L11.7894522,17 C11.3868705,17 11.1817087,16.5157427 11.4642901,16.2313375 L16.2062375,11.4694737 C16.4926898,11.1812253 16.9842652,11.3810775 16.9842652,11.7846253 L16.9997878,16.5464892 C17.0075298,16.7963044 16.802368,17 16.5507544,17 Z M0.707471407,12.8802995 L12.8834267,0.707329002 C13.8267219,-0.235776334 15.3533707,-0.235776334 16.2925286,0.707329002 C17.2358238,1.65039298 17.2358238,3.1766262 16.2925286,4.1155953 L4.11657339,16.2927021 C3.17741545,17.235766 1.64662935,17.235766 0.707471407,16.2927021 C-0.235823802,15.3495967 -0.235823802,13.8233635 0.707471407,12.8802995 Z"
              transform="translate(82 4)"/>
        <path fill="#303030"
              d="M70.3420749,9.08085938 C71.2577658,9.08085938 72,9.80446708 72,10.6965728 L72,19.3842866 C72,20.2763922 71.2577658,21 70.3420749,21 C69.4263834,21 68.6841492,20.2763922 68.6841492,19.3842866 L68.6841492,10.6965728 C68.6841492,9.80446708 69.4263834,9.08085938 70.3420749,9.08085938 Z M14.1725396,1.59606347 C14.2471664,7.61777662 14.2844798,10.6292882 14.2844798,10.6305982 L14.2844798,13.9686256 C14.2844798,17.8430955 11.0805691,20.9954314 7.14249199,20.9954314 C3.20391063,20.9954314 0,17.8430955 0,13.9686256 L0,10.819518 C0,9.92741229 0.741730021,9.20380459 1.65792543,9.20380459 C2.5736166,9.20380459 3.31585086,9.92741229 3.31585086,10.819518 L3.31585086,13.9686256 C3.31585086,16.0613404 5.03226758,17.7644959 7.14249199,17.7644959 C9.25170797,17.7644959 10.9686289,16.0613404 10.9686289,13.9686256 L10.9686289,10.715584 L10.8566887,1.63487203 C10.8455955,0.74276638 11.5787535,0.0108074473 12.5151184,0 C13.4217333,0 14.1619506,0.710344038 14.1725396,1.59606347 Z M47.7807755,9.08085938 L54.9685046,9.08085938 C55.8841958,9.08085938 56.62643,9.80446708 56.62643,10.6965728 C56.62643,11.5881872 55.8841958,12.3117949 54.9685046,12.3117949 L47.7807755,12.3117949 L47.7807755,13.6956394 C47.7807755,17.720431 44.4195435,20.9950875 40.2883443,20.9950875 C36.157145,20.9950875 32.795913,17.720431 32.795913,13.6956394 L32.795913,10.8191741 C32.795913,9.92706843 33.5376431,9.20395195 34.4538385,9.20395195 C35.3695296,9.20395195 36.1117639,9.92706843 36.1117639,10.8191741 L36.1117639,13.6956394 C36.1117639,15.9391672 37.985502,17.764152 40.2883443,17.764152 C42.5911865,17.764152 44.4649247,15.9391672 44.4649247,13.6956394 L44.4649247,8.34890043 C44.4649247,7.45679475 45.2071589,6.73367827 46.1228501,6.73367827 C47.0390455,6.73367827 47.7807755,7.45679475 47.7807755,8.34890043 L47.7807755,9.08085938 Z M20.5229302,9.08071201 L26.5347828,9.08071201 C27.4504739,9.08071201 28.1927082,9.8043197 28.1927082,10.6964254 C28.1927082,11.5880398 27.4504739,12.3116475 26.5347828,12.3116475 L18.8841657,12.3116475 C18.7707128,12.3116475 18.6592768,12.3003488 18.5518747,12.2792251 C18.522629,12.2733301 18.4964088,12.261049 18.4676674,12.2536803 C18.3910237,12.2340304 18.3138757,12.2148717 18.2417701,12.1853969 C18.2064735,12.1711507 18.175211,12.1495358 18.140923,12.1323421 C18.0799105,12.102376 18.0173854,12.0743749 17.960911,12.0375313 C17.9276315,12.0159164 17.8993943,11.9874241 17.8681317,11.9638442 C17.8161955,11.9240531 17.7627465,11.8862271 17.7158527,11.8415235 C17.6876155,11.8140136 17.6659334,11.7820826 17.6402174,11.753099 C17.5968532,11.7044654 17.5509678,11.6573056 17.5136544,11.6032684 C17.4909638,11.5708461 17.4753325,11.5344938 17.4551631,11.5005977 C17.4218836,11.4445954 17.3865871,11.3905582 17.3603669,11.330626 C17.3432229,11.2913262 17.3336424,11.2485877 17.320028,11.2078141 C17.2993544,11.1488644 17.2761596,11.0913884 17.2630495,11.0294912 C17.2529648,10.9838052 17.2524605,10.9351717 17.2464097,10.8885032 C17.2398547,10.8310272 17.2272488,10.775025 17.2267446,10.715584 L17.1153085,1.63487203 C17.1042154,0.742766376 17.8373734,0.0108074473 18.7737382,0 C19.6803532,0 20.4200662,0.710344034 20.4311594,1.59606347 L20.5229302,9.08071201 Z M62.9996536,9.08085938 C63.9153448,9.08085938 64.657579,9.80446708 64.657579,10.6965728 L64.657579,19.3842866 C64.657579,20.2763922 63.9153448,21 62.9996536,21 C62.0839624,21 61.3417282,20.2763922 61.3417282,19.3842866 L61.3417282,10.6965728 C61.3417282,9.80446708 62.0839624,9.08085938 62.9996536,9.08085938 Z M40.2869324,12.2139875 C39.8785019,12.2139875 39.4751137,12.0518757 39.1876996,11.7718646 C38.8952432,11.486941 38.7288456,11.0939429 38.7288456,10.6960324 C38.7288456,10.2981218 38.8952432,9.90512369 39.1876996,9.62511255 C39.7625278,9.06017782 40.8113371,9.05526537 41.3912076,9.62511255 C41.6786216,9.90512369 41.8450193,10.2981218 41.8450193,10.6960324 C41.8450193,11.0939429 41.6786216,11.486941 41.3912076,11.7718646 C41.0987512,12.0518757 40.7004053,12.2139875 40.2869324,12.2139875 Z M70.3391501,7.13939967 C69.9307197,7.13939967 69.5278359,6.97728796 69.2399173,6.69727688 C68.9525032,6.41235323 68.7810636,6.01935517 68.7810636,5.62144459 C68.7810636,5.22353404 68.9525032,4.83053595 69.2399173,4.55052481 C69.6029671,4.19682654 70.1424986,4.03471483 70.6467341,4.13296435 C70.7480851,4.15261426 70.8433856,4.18208911 70.9391901,4.22138892 C71.0299526,4.26068873 71.121219,4.30490101 71.2069394,4.35893825 C71.2926592,4.41788796 71.373337,4.48175015 71.4434256,4.55052481 C71.7313436,4.83053595 71.8977412,5.22353404 71.8977412,5.62144459 C71.8977412,6.02426761 71.7313436,6.41235323 71.4434256,6.69727688 C71.373337,6.76605152 71.2926592,6.82991371 71.2069394,6.88395095 C71.121219,6.93798819 71.0299526,6.98711291 70.9391901,7.02641274 C70.8433856,7.06080007 70.7430425,7.09027494 70.6467341,7.10992485 C70.545887,7.12957477 70.4399972,7.13939967 70.3391501,7.13939967 Z M24.4048122,18.7328923 C24.4451509,18.8262293 24.4703627,18.9195664 24.4905321,19.0178159 C24.5107015,19.1160654 24.5258286,19.2143149 24.5258286,19.3125645 C24.5258286,19.410814 24.5107015,19.513976 24.4905321,19.6122255 C24.4703627,19.7055626 24.4451509,19.8038121 24.4048122,19.8922367 C24.3644733,19.9855737 24.3190922,20.0739983 24.2641305,20.1575103 C24.2036223,20.2410224 24.1380717,20.3147096 24.0669745,20.3883967 C23.9963816,20.4571714 23.9157039,20.5210336 23.829984,20.5750708 C23.744264,20.629108 23.6540059,20.6782328 23.5627393,20.7175326 C23.4674389,20.7519199 23.3711299,20.7813948 23.2702829,20.8010447 C23.1694358,20.8206946 23.069093,20.8305196 22.9677417,20.8305196 C22.8668947,20.8305196 22.7610053,20.8206946 22.6601582,20.8010447 C22.5648578,20.7813948 22.4635065,20.7519199 22.3732484,20.7175326 C22.2769395,20.6782328 22.1866814,20.629108 22.1009614,20.5750708 C22.0152414,20.5210336 21.9345637,20.4571714 21.8634666,20.3883967 C21.7928737,20.3147096 21.7273231,20.2410224 21.6718572,20.1575103 C21.6168956,20.0739983 21.5659678,19.9855737 21.525629,19.8922367 C21.4908367,19.8038121 21.4600784,19.7055626 21.439909,19.6122255 C21.4197396,19.513976 21.4101591,19.410814 21.4101591,19.3125645 C21.4101591,19.2143149 21.4197396,19.1160654 21.439909,19.0178159 C21.4600784,18.9195664 21.4908367,18.8262293 21.525629,18.7328923 C21.5659678,18.6444677 21.6168956,18.5560431 21.6718572,18.4725311 C21.7273231,18.389019 21.7928737,18.3104194 21.8634666,18.2416447 C21.9345637,18.17287 22.0152414,18.1090078 22.1009614,18.0500581 C22.1866814,17.9960209 22.2769395,17.9518086 22.3677018,17.9125088 C22.4635065,17.873209 22.5648578,17.8437341 22.6601582,17.8240843 C22.8618523,17.7847844 23.069093,17.7847844 23.2702829,17.8240843 C23.3711299,17.8437341 23.4674389,17.873209 23.5627393,17.9125088 C23.6540059,17.9518086 23.744264,17.9960209 23.829984,18.0500581 C23.9157039,18.1090078 23.9963816,18.17287 24.0669745,18.2416447 C24.1380717,18.3104194 24.2036223,18.389019 24.2641305,18.4725311 C24.3190922,18.5560431 24.3644733,18.6444677 24.4048122,18.7328923 Z M51.1434482,14.984231 L55.6024004,14.984231 C56.3194228,14.984231 56.9003018,15.5506395 56.9003018,16.2491935 C56.9003018,16.9477476 56.3194228,17.5136648 55.6024004,17.5136648 L51.1434482,17.5136648 C50.4264257,17.5136648 49.8455467,16.9477476 49.8455467,16.2491935 C49.8455467,15.5506395 50.4264257,14.984231 51.1434482,14.984231 Z M25.1961589,14.4778529 C25.9131814,14.4778529 26.4940604,15.0442614 26.4940604,15.7428155 C26.4940604,16.4413696 25.9131814,17.0072868 25.1961589,17.0072868 L20.7372068,17.0072868 C20.0201843,17.0072868 19.4393053,16.4413696 19.4393053,15.7428155 C19.4393053,15.0442614 20.0201843,14.4778529 20.7372068,14.4778529 L25.1961589,14.4778529 Z"/>
    </g>
</svg>
