<svg xmlns="http://www.w3.org/2000/svg" width="116" height="63" viewBox="0 0 116 63">
  <defs>
    <linearGradient id="logo2-a" x1="100%" x2="0%" y1="100%" y2="0%">
      <stop offset="0%" stop-color="#FFE75A"/>
      <stop offset="100%" stop-color="#F7CB3D"/>
    </linearGradient>
    <filter id="logo2-b" width="810.5%" height="810.5%" x="-351.5%" y="-318.4%" filterUnits="objectBoundingBox">
      <feOffset dy="4" in="SourceAlpha" result="shadowOffsetOuter1"/>
      <feGaussianBlur in="shadowOffsetOuter1" result="shadowBlurOuter1" stdDeviation="13.5"/>
      <feColorMatrix in="shadowBlurOuter1" result="shadowMatrixOuter1" values="0 0 0 0 1   0 0 0 0 0.768924303   0 0 0 0 0  0 0 0 0.882331295 0"/>
      <feMerge>
        <feMergeNode in="shadowMatrixOuter1"/>
        <feMergeNode in="SourceGraphic"/>
      </feMerge>
    </filter>
  </defs>
  <g fill="none" fill-rule="evenodd" transform="translate(0 17)">
    <g transform="translate(74)">
      <rect width="21" height="21" fill="url(#logo2-a)" rx="4.773"/>
      <g fill="#FFF" filter="url(#logo2-b)" transform="translate(4.455 4.455)">
        <path d="M.324662673 0L3.70610696 0C3.99225033 0 4.1380734.344418321 3.93722276.546695748L.564032611 3.93347591C.360430595 4.13848681.0110055144 3.99634592.0110055144 3.70933065L0 .322550491C0 .144874373.143071687 0 .324662673 0M11.7713922 12.0909091L8.38501146 12.0909091C8.09868333 12.0909091 7.95276611 11.7464908 8.15374643 11.5442133L11.5263614 8.15743318C11.7300949 7.95242228 12.079718 8.09456317 12.079718 8.38157844L12.0907582 11.7683586C12.0962645 11.9460347 11.9503473 12.0909091 11.7713922 12.0909091M.503174849 9.16085472L9.16307883.503073568C9.83397863-.167691189 10.919777-.167691189 11.5877342.503073568 12.258634 1.17380891 12.258634 2.25931168 11.5877342 2.92713462L2.92783026 11.5878576C2.25987301 12.2585929 1.1711321 12.2585929.503174849 11.5878576-.16772495 10.9170928-.16772495 9.83159006.503174849 9.16085472z"/>
      </g>
    </g>
    <path fill="#303030" d="M65.218162,9.29980227 C66.0671492,9.29980227 66.7553151,10.002825 66.7553151,10.8695523 L66.7553151,19.3101205 C66.7553151,20.1768477 66.0671492,20.8798705 65.218162,20.8798705 C64.3691747,20.8798705 63.6810089,20.1768477 63.6810089,19.3101205 L63.6810089,10.8695523 C63.6810089,10.002825 64.3691747,9.29980227 65.218162,9.29980227 Z M13.1403216,2.02793182 C13.2095122,7.87834091 13.2441075,10.8041818 13.2441075,10.8054545 L13.2441075,14.0485227 C13.2441075,17.8127727 10.2735871,20.8754318 6.62238098,20.8754318 C2.97070734,20.8754318 0.000187001595,17.8127727 0.000187001595,14.0485227 L0.000187001595,10.989 C0.000187001595,10.1222727 0.687885367,9.41925 1.53734011,9.41925 C2.38632735,9.41925 3.07449322,10.1222727 3.07449322,10.989 L3.07449322,14.0485227 C3.07449322,16.0817045 4.66587679,17.7364091 6.62238098,17.7364091 C8.57795016,17.7364091 10.1698012,16.0817045 10.1698012,14.0485227 L10.1698012,10.8880227 L10.0660154,2.06563636 C10.0557303,1.19890909 10.7354811,0.487772727 11.603636,0.477272727 C12.4442081,0.477272727 13.130504,1.16740909 13.1403216,2.02793182 Z M44.3003506,9.29980227 L50.9644863,9.29980227 C51.8134736,9.29980227 52.5016395,10.002825 52.5016395,10.8695523 C52.5016395,11.7358023 51.8134736,12.438825 50.9644863,12.438825 L44.3003506,12.438825 L44.3003506,13.7833023 C44.3003506,17.6935977 41.183969,20.8750977 37.3537088,20.8750977 C33.5234487,20.8750977 30.4070671,17.6935977 30.4070671,13.7833023 L30.4070671,10.9886659 C30.4070671,10.1219386 31.0947655,9.41939318 31.9442202,9.41939318 C32.7932074,9.41939318 33.4813733,10.1219386 33.4813733,10.9886659 L33.4813733,13.7833023 C33.4813733,15.9630068 35.2186181,17.736075 37.3537088,17.736075 C39.4887995,17.736075 41.2260444,15.9630068 41.2260444,13.7833023 L41.2260444,8.58866591 C41.2260444,7.72193864 41.9142102,7.01939318 42.7631975,7.01939318 C43.6126522,7.01939318 44.3003506,7.72193864 44.3003506,8.58866591 L44.3003506,9.29980227 Z M19.1007637,9.29980227 L24.6746801,9.29980227 C25.5236674,9.29980227 26.2118332,10.002825 26.2118332,10.8695523 C26.2118332,11.7358023 25.5236674,12.438825 24.6746801,12.438825 L17.5813757,12.438825 C17.4761873,12.438825 17.3728689,12.4278477 17.2732906,12.407325 C17.2461753,12.4015977 17.2218651,12.3896659 17.1952174,12.3825068 C17.1241568,12.3634159 17.0526287,12.3448023 16.9857756,12.3161659 C16.9530503,12.302325 16.9240651,12.281325 16.8922748,12.2646205 C16.8357068,12.2355068 16.7777363,12.2083023 16.7253759,12.1725068 C16.6945206,12.1515068 16.6683404,12.123825 16.6393552,12.1009159 C16.5912023,12.0622568 16.5416468,12.0255068 16.498169,11.982075 C16.4719887,11.9553477 16.4518861,11.924325 16.4280434,11.8961659 C16.387838,11.8489159 16.3452952,11.8030977 16.3106999,11.7505977 C16.2896622,11.7190977 16.2751696,11.6837795 16.2564694,11.6508477 C16.2256141,11.5964386 16.1928889,11.5439386 16.1685786,11.4857114 C16.1526835,11.4475295 16.1438009,11.4060068 16.1311783,11.3663932 C16.1120107,11.3091205 16.0905055,11.2532795 16.0783504,11.1931432 C16.0690003,11.1487568 16.0685328,11.1015068 16.0629227,11.0561659 C16.0568452,11.000325 16.0451576,10.9459159 16.0446901,10.8881659 L15.9413717,2.06577955 C15.9310866,1.19905227 16.6108374,0.487915909 17.4789923,0.477415909 C18.3195645,0.477415909 19.0053928,1.16755227 19.0156779,2.028075 L19.1007637,9.29980227 Z M58.4106027,9.29980227 C59.2595899,9.29980227 59.9477558,10.002825 59.9477558,10.8695523 L59.9477558,19.3101205 C59.9477558,20.1768477 59.2595899,20.8798705 58.4106027,20.8798705 C57.5616154,20.8798705 56.8734496,20.1768477 56.8734496,19.3101205 L56.8734496,10.8695523 C56.8734496,10.002825 57.5616154,9.29980227 58.4106027,9.29980227 Z M37.3523998,12.3438 C36.9737216,12.3438 36.5997184,12.1863 36.3332411,11.9142545 C36.0620888,11.6374364 35.9078125,11.2556182 35.9078125,10.8690273 C35.9078125,10.4824364 36.0620888,10.1006182 36.3332411,9.82857273 C36.8661957,9.27970909 37.838604,9.27493636 38.3762336,9.82857273 C38.6427108,10.1006182 38.7969871,10.4824364 38.7969871,10.8690273 C38.7969871,11.2556182 38.6427108,11.6374364 38.3762336,11.9142545 C38.1050812,12.1863 37.7357531,12.3438 37.3523998,12.3438 Z M65.2154505,7.41357273 C64.8367722,7.41357273 64.4632365,7.25607273 64.1962918,6.98402727 C63.9298145,6.70720909 63.7708631,6.32539091 63.7708631,5.9388 C63.7708631,5.55220909 63.9298145,5.17039091 64.1962918,4.89834545 C64.5328946,4.55470909 65.0331239,4.39720909 65.5006279,4.49266364 C65.5945962,4.51175455 65.6829544,4.54039091 65.7717802,4.57857273 C65.8559309,4.61675455 65.9405491,4.65970909 66.0200248,4.71220909 C66.0995005,4.76948182 66.1743011,4.83152727 66.2392842,4.89834545 C66.506229,5.17039091 66.6605053,5.55220909 66.6605053,5.9388 C66.6605053,6.33016364 66.506229,6.70720909 66.2392842,6.98402727 C66.1743011,7.05084545 66.0995005,7.11289091 66.0200248,7.16539091 C65.9405491,7.21789091 65.8559309,7.26561818 65.7717802,7.3038 C65.6829544,7.33720909 65.5899212,7.36584545 65.5006279,7.38493636 C65.4071271,7.40402727 65.3089513,7.41357273 65.2154505,7.41357273 Z M22.6272197,18.6772568 C22.66462,18.7679386 22.6879952,18.8586205 22.7066954,18.954075 C22.7253955,19.0495295 22.7394207,19.1449841 22.7394207,19.2404386 C22.7394207,19.3358932 22.7253955,19.4361205 22.7066954,19.531575 C22.6879952,19.6222568 22.66462,19.7177114 22.6272197,19.8036205 C22.5898194,19.8943023 22.547744,19.9802114 22.4967861,20.0613477 C22.4406856,20.1424841 22.3799101,20.214075 22.313992,20.2856659 C22.2485415,20.3524841 22.1737408,20.4145295 22.0942652,20.4670295 C22.0147895,20.5195295 21.9311063,20.5672568 21.846488,20.6054386 C21.7581298,20.6388477 21.6688365,20.6674841 21.5753357,20.686575 C21.4818349,20.7056659 21.3888016,20.7152114 21.2948333,20.7152114 C21.2013325,20.7152114 21.1031567,20.7056659 21.0096559,20.686575 C20.9212976,20.6674841 20.8273293,20.6388477 20.7436461,20.6054386 C20.6543529,20.5672568 20.5706697,20.5195295 20.491194,20.4670295 C20.4117183,20.4145295 20.3369177,20.3524841 20.2709996,20.2856659 C20.205549,20.214075 20.1447735,20.1424841 20.0933481,20.0613477 C20.0423902,19.9802114 19.9951722,19.8943023 19.9577719,19.8036205 C19.9255142,19.7177114 19.8969964,19.6222568 19.8782963,19.531575 C19.8595961,19.4361205 19.8507135,19.3358932 19.8507135,19.2404386 C19.8507135,19.1449841 19.8595961,19.0495295 19.8782963,18.954075 C19.8969964,18.8586205 19.9255142,18.7679386 19.9577719,18.6772568 C19.9951722,18.5913477 20.0423902,18.5054386 20.0933481,18.4243023 C20.1447735,18.3431659 20.205549,18.2668023 20.2709996,18.1999841 C20.3369177,18.1331659 20.4117183,18.0711205 20.491194,18.0138477 C20.5706697,17.9613477 20.6543529,17.9183932 20.7385036,17.8802114 C20.8273293,17.8420295 20.9212976,17.8133932 21.0096559,17.7943023 C21.1966575,17.7561205 21.3888016,17.7561205 21.5753357,17.7943023 C21.6688365,17.8133932 21.7581298,17.8420295 21.846488,17.8802114 C21.9311063,17.9183932 22.0147895,17.9613477 22.0942652,18.0138477 C22.1737408,18.0711205 22.2485415,18.1331659 22.313992,18.1999841 C22.3799101,18.2668023 22.4406856,18.3431659 22.4967861,18.4243023 C22.547744,18.5054386 22.5898194,18.5913477 22.6272197,18.6772568 Z M47.4180679,15.0352364 L51.5522056,15.0352364 C52.2169963,15.0352364 52.7555609,15.5855318 52.7555609,16.2642136 C52.7555609,16.9428955 52.2169963,17.4927136 51.5522056,17.4927136 L47.4180679,17.4927136 C46.7532772,17.4927136 46.2147126,16.9428955 46.2147126,16.2642136 C46.2147126,15.5855318 46.7532772,15.0352364 47.4180679,15.0352364 Z M23.3609205,14.5432636 C24.0257111,14.5432636 24.5642757,15.0935591 24.5642757,15.7722409 C24.5642757,16.4509227 24.0257111,17.0007409 23.3609205,17.0007409 L19.2267827,17.0007409 C18.561992,17.0007409 18.0234274,16.4509227 18.0234274,15.7722409 C18.0234274,15.0935591 18.561992,14.5432636 19.2267827,14.5432636 L23.3609205,14.5432636 Z"/>
  </g>
</svg>
