<svg xmlns="http://www.w3.org/2000/svg" width="20" height="20" viewBox="0 0 20 20">
  <defs>
    <linearGradient id="single-a" x1="100%" x2="0%" y1="100%" y2="0%">
      <stop offset="0%" stop-color="#FFE75A"/>
      <stop offset="100%" stop-color="#F7CB3D"/>
    </linearGradient>
  </defs>
  <g fill="none">
    <rect width="20" height="20" fill="url(#single-a)" rx="10"/>
    <path fill="#FFF" d="M0.268518001,0 L3.06520124,0 C3.30186118,0 3.42246672,0.284857258 3.25634965,0.452154378 L0.466493137,3.25325075 C0.298100492,3.42280864 0.0091023051,3.3052485 0.0091023051,3.06786746 L0,0.266771083 C0,0.11982091 0.118329966,0 0.268518001,0 Z M9.73573792,10 L6.93497188,10 C6.69815914,10 6.57747573,9.71514274 6.74370006,9.54784562 L9.53308086,6.74674925 C9.70158223,6.57719136 9.99074425,6.6947515 9.99074425,6.93213254 L9.9998752,9.73322892 C10.0044293,9.88017909 9.88374588,10 9.73573792,10 Z M0.416159649,7.57664675 L7.57848624,0.416075882 C8.13336577,-0.138691961 9.03139449,-0.138691961 9.58384034,0.416075882 C10.1387199,0.970819394 10.1387199,1.86860365 9.58384034,2.4209384 L2.42151375,9.58394235 C1.8690679,10.1386859 0.968605499,10.1386859 0.416159649,9.58394235 C-0.138719883,9.0291745 -0.138719883,8.13139026 0.416159649,7.57664675 Z" transform="translate(5 5)"/>
  </g>
</svg>
