<svg xmlns="http://www.w3.org/2000/svg" width="16" height="14" viewBox="0 0 16 14">
  <g fill="none" fill-rule="evenodd" transform="translate(-1 -1)">
    <circle cx="9" cy="9" r="2.4" fill="#2979FF"/>
    <path fill="#2979FF" fill-rule="nonzero" d="M6.75,1.5 L5.3775,3 L3,3 C2.175,3 1.5,3.675 1.5,4.5 L1.5,13.5 C1.5,14.325 2.175,15 3,15 L15,15 C15.825,15 16.5,14.325 16.5,13.5 L16.5,4.5 C16.5,3.675 15.825,3 15,3 L12.6225,3 L11.25,1.5 L6.75,1.5 Z M9,12.75 C6.93,12.75 5.25,11.07 5.25,9 C5.25,6.93 6.93,5.25 9,5.25 C11.07,5.25 12.75,6.93 12.75,9 C12.75,11.07 11.07,12.75 9,12.75 Z"/>
    <polygon points="0 0 18 0 18 18 0 18"/>
  </g>
</svg>
