<svg xmlns="http://www.w3.org/2000/svg" xmlns:xlink="http://www.w3.org/1999/xlink" width="325" height="243" viewBox="0 0 325 243">
  <defs>
    <linearGradient id="verify-b" x1="100%" x2="0%" y1="50%" y2="50%">
      <stop offset="0%" stop-color="#F9FBFF"/>
      <stop offset="100%" stop-color="#F0F5FF"/>
    </linearGradient>
    <path id="verify-a" d="M19.229139,-7.76880231e-16 L305.770861,7.76880231e-16 C312.457252,-4.51389787e-16 314.881898,0.696192084 317.326343,2.00349528 C319.770787,3.31079847 321.689202,5.22921278 322.996505,7.67365722 C324.303808,10.1181017 325,12.5427485 325,19.229139 L325,223.770861 C325,230.457252 324.303808,232.881898 322.996505,235.326343 C321.689202,237.770787 319.770787,239.689202 317.326343,240.996505 C314.881898,242.303808 312.457252,243 305.770861,243 L19.229139,243 C12.5427485,243 10.1181017,242.303808 7.67365722,240.996505 C5.22921278,239.689202 3.31079847,237.770787 2.00349528,235.326343 C0.696192084,232.881898 3.00926524e-16,230.457252 -5.17920154e-16,223.770861 L5.17920154e-16,19.229139 C-3.00926524e-16,12.5427485 0.696192084,10.1181017 2.00349528,7.67365722 C3.31079847,5.22921278 5.22921278,3.31079847 7.67365722,2.00349528 C10.1181017,0.696192084 12.5427485,4.51389787e-16 19.229139,-7.76880231e-16 Z"/>
    <linearGradient id="verify-d" x1="50%" x2="50%" y1="100%" y2="0%">
      <stop offset="0%" stop-color="#FCC7BE"/>
      <stop offset="100%" stop-color="#F2A7A1"/>
    </linearGradient>
    <linearGradient id="verify-e" x1="0%" x2="97.033%" y1="43.422%" y2="49.805%">
      <stop offset="0%" stop-color="#619CFF"/>
      <stop offset="100%" stop-color="#3675D6"/>
    </linearGradient>
    <linearGradient id="verify-f" x1="100%" x2="0%" y1="50%" y2="50%">
      <stop offset="0%" stop-color="#FFD040"/>
      <stop offset="100%" stop-color="#FFE89A"/>
    </linearGradient>
    <linearGradient id="verify-g" x1="8.829%" y1="65.423%" y2="48.163%">
      <stop offset="0%" stop-color="#F6AA9C"/>
      <stop offset="100%" stop-color="#FD8F8C"/>
    </linearGradient>
  </defs>
  <g fill="none" fill-rule="evenodd">
    <mask id="verify-c" fill="#fff">
      <use xlink:href="#verify-a"/>
    </mask>
    <use fill="url(#verify-b)" xlink:href="#verify-a"/>
    <g mask="url(#verify-c)">
      <g transform="translate(24 29)">
        <path fill="url(#verify-d)" d="M134,108.016035 C138.745921,115.785317 133.059831,152.044199 126.5,162 C137.930486,162 192.972531,161.624309 202,162 C192.129446,146.596685 185.786701,118.483685 191,109.373939 C196.213299,100.264193 139.821172,106.745627 135.736494,113.889759" style="mix-blend-mode:luminosity"/>
        <path fill="url(#verify-d)" d="M206.687235,43 C206.687235,43 212.447563,129.191028 163.105314,129.191028 C113.761563,129.191028 116.0158,43 116.0158,43 L206.687235,43 Z" style="mix-blend-mode:luminosity"/>
        <path fill="url(#verify-e)" d="M117.5,45 C90.915219,20.5 135,0.461734302 159.755364,0.461734302 C184.510727,0.461734302 210.883867,10.4036685 212.654195,25 C214.432037,39.662453 209.762393,73.5380725 205.5,76.5 C201.237607,79.4619275 196.589601,51.3663089 196.589601,51.3663089 C194.5,42 144.084781,69.5 117.5,45 Z" style="mix-blend-mode:luminosity"/>
        <path fill="url(#verify-f)" d="M265.52676,216.901719 C265.52676,216.901719 189.951201,236.87794 64.2744667,219.720902 C64.2744667,219.720902 65.404591,165.071443 128.282783,147.332835 C150.730478,156.215664 173.597461,158.490846 198.627009,145.078692 C259.482399,164.501896 265.52676,216.901719 265.52676,216.901719" style="mix-blend-mode:luminosity"/>
        <polygon fill="url(#verify-f)" points="25.866 86.622 28 233 81 233 52.975 78.961" style="mix-blend-mode:luminosity"/>
        <polygon fill="#FFF" points="0 186.528 85.457 186.528 85.457 81 0 81"/>
        <path fill="url(#verify-d)" d="M32.5127141 87.4931359C30.6432 87.4931359 29.1133243 85.9633238 29.1133243 84.0938873L29.1133243 78.2210917C29.1133243 76.3516552 30.6432 74.8218431 32.5127141 74.8218431 34.3822282 74.8218431 35.912104 76.3516552 35.912104 78.2210917L35.912104 84.0938873C35.912104 85.9633238 34.3822282 87.4931359 32.5127141 87.4931359M39.7273254 87.4931359C37.8578113 87.4931359 36.3279356 85.9633238 36.3279356 84.0938873L36.3279356 78.2210917C36.3279356 76.3516552 37.8578113 74.8218431 39.7273254 74.8218431 41.5968395 74.8218431 43.1267153 76.3516552 43.1267153 78.2210917L43.1267153 84.0938873C43.1267153 85.9633238 41.5968395 87.4931359 39.7273254 87.4931359M46.942087 87.4931359C45.0725729 87.4931359 43.5426972 85.9633238 43.5426972 84.0938873L43.5426972 78.2210917C43.5426972 76.3516552 45.0725729 74.8218431 46.942087 74.8218431 48.8116011 74.8218431 50.3429797 76.3516552 50.3429797 78.2210917L50.3429797 84.0938873C50.3429797 85.9633238 48.8116011 87.4931359 46.942087 87.4931359M54.4356226 87.453463C52.5661085 87.453463 51.0347299 85.9236508 51.0347299 84.0542144L51.0347299 78.1829215C51.0347299 76.3119823 52.5661085 74.7836729 54.4356226 74.7836729 56.3036339 74.7836729 57.8350124 76.3119823 57.8350124 78.1829215L57.8350124 84.0542144C57.8350124 85.9236508 56.3036339 87.453463 54.4356226 87.453463" style="mix-blend-mode:luminosity"/>
        <polygon fill="#173B76" points="12 104 74.378 104 74.378 102 12 102"/>
        <polygon fill="#173B76" points="12 114 74.378 114 74.378 112 12 112"/>
        <polygon fill="#173B76" points="12 123 74.378 123 74.378 121 12 121"/>
        <polygon fill="#173B76" points="33 132 73.92 132 73.92 130 33 130"/>
        <path fill="#E7EFFA" d="M66.1725172,174 L19.8274828,174 C18.8220145,174 18,173.215796 18,172.256577 L18,145.74174 C18,144.784204 18.8220145,144 19.8274828,144 L66.1725172,144 C67.1779855,144 68,144.784204 68,145.74174 L68,172.256577 C68,173.215796 67.1779855,174 66.1725172,174"/>
        <path fill="#949FAE" d="M52.2012862 153.402572L62.9172612 153.402572C63.5807132 153.402572 64.1185474 152.864738 64.1185474 152.201286L64.1185474 152.201286C64.1185474 151.537834 63.5807132 151 62.9172612 151L52.2012862 151C51.5378341 151 51 151.537834 51 152.201286L51 152.201286C51 152.864738 51.5378341 153.402572 52.2012862 153.402572zM54.2012862 159.402572L62.5146888 159.402572C63.1781409 159.402572 63.715975 158.864738 63.715975 158.201286L63.715975 158.201286C63.715975 157.537834 63.1781409 157 62.5146888 157L54.2012862 157C53.5378341 157 53 157.537834 53 158.201286L53 158.201286C53 158.864738 53.5378341 159.402572 54.2012862 159.402572zM51.2012862 165.402572L63.1185474 165.402572C63.7819994 165.402572 64.3198336 164.864738 64.3198336 164.201286L64.3198336 164.201286C64.3198336 163.537834 63.7819994 163 63.1185474 163L51.2012862 163C50.5378341 163 50 163.537834 50 164.201286L50 164.201286C50 164.864738 50.5378341 165.402572 51.2012862 165.402572z"/>
        <g transform="translate(23 149)">
          <path fill="#FFF" d="M13.0744339,16.5751154 L1.0117597,16.5751154 C0.620774765,16.5751154 0.305181544,16.2448297 0.305181544,15.8397279 L0.305181544,1.73233086 C0.305181544,1.32540426 0.620774765,0.995118548 1.0117597,0.995118548 L13.0744339,0.995118548 C13.4671721,0.995118548 13.7827653,1.32540426 13.7827653,1.73233086 L13.7827653,15.8397279 C13.7827653,16.2448297 13.4671721,16.5751154 13.0744339,16.5751154"/>
          <path fill="#FFB3A9" d="M5.40534331,10.7016865 C5.67184426,11.1560575 5.54385367,12.8147852 5.17566158,13.3968909 C5.8173678,13.3968909 8.4052322,13.3530961 8.91193465,13.3749935 C8.35789322,12.4753755 8.07035273,11.3257623 8.36315311,10.7929257 C8.65595348,10.260089 5.63502505,10.2838112 5.40534331,10.7016865"/>
          <path fill="url(#verify-g)" d="M9.36744087,5.48846409 C9.36744087,5.48846409 9.69180056,11.5814144 6.91808682,11.5814144 C4.14437307,11.5814144 4.27236365,5.48846409 4.27236365,5.48846409 L9.36744087,5.48846409 Z"/>
          <path fill="#1E1E1E" d="M8.84530942,5.81801989 C8.84530942,5.81801989 4.85656177,7.33076496 3.63802128,5.48773418 C2.42298738,3.64652818 4.79168983,2.63194886 6.77642053,2.8417989 C8.79621714,3.05347372 9.99547137,4.06075391 10.0954092,4.91292755 C10.1971004,5.77057553 9.9867049,7.79973418 9.33097232,7.81615722 C8.46659755,7.83805462 8.84530942,5.81801989 8.84530942,5.81801989"/>
          <path fill="url(#verify-f)" d="M12.6720525,16.5751154 L1.38959492,16.5751154 C1.38959492,16.5751154 1.45446685,13.6956079 4.98560433,12.6573064 C6.24797721,13.1773695 7.53138964,13.3105787 8.93928606,12.525922 C12.3564593,13.660937 12.6720525,16.5751154 12.6720525,16.5751154"/>
        </g>
      </g>
    </g>
  </g>
</svg>
