<?xml version="1.0" encoding="UTF-8"?>
<svg width="299px" height="379px" viewBox="0 0 299 379" version="1.1" xmlns="http://www.w3.org/2000/svg" xmlns:xlink="http://www.w3.org/1999/xlink">
    <!-- Generator: Sketch 46.2 (44496) - http://www.bohemiancoding.com/sketch -->
    <title>Group 6</title>
    <desc>Created with Sketch.</desc>
    <defs></defs>
    <g id="Page-1" stroke="none" stroke-width="1" fill="none" fill-rule="evenodd">
        <g id="Desktop-HD" transform="translate(-271.000000, 0.000000)">
            <g id="Group-6" transform="translate(271.000000, -225.000000)">
                <path d="" id="Path-2" stroke="#979797"></path>
                <g id="Group-4">
                    <ellipse id="Oval" fill-opacity="0.2" fill="#DBDBDB" cx="149" cy="577" rx="149" ry="27"></ellipse>
                    <path d="M0.00808615816,576.715756 C0.00269977391,576.810388 0,576.905137 0,577 C0,591.911688 66.7095723,604 149,604 C231.290428,604 298,591.911688 298,577 C298,576.905137 297.9973,576.810388 297.991914,576.715756 L298.339844,576.715756 L135.258927,0 L0.402145892,575.001091 C0.179413534,575.552623 0.048109,576.108756 0.0109669915,576.668995 L2.84217094e-14,576.715756 Z" id="Combined-Shape" fill-opacity="0.2" fill="#DBDBDB"></path>
                    <g id="Group-3" transform="translate(36.000000, 273.000000)">
                        <path d="M102,183 L98.5,183 L98.5,183 C97.1192881,183 96,184.119288 96,185.5 C96,186.880712 97.1192881,188 98.5,188 L102,188 L102,192.5 C102,193.328427 103.119288,194 104.5,194 C105.880712,194 107,193.328427 107,192.5 L107,188 L110.5,188 C111.880712,188 113,186.880712 113,185.5 C113,184.119288 111.880712,183 110.5,183 L107,183 L107,178.5 C107,177.671573 105.880712,177 104.5,177 C103.119288,177 102,177.671573 102,178.5 L102,183 Z" id="Combined-Shape" fill="#D8D8D8"></path>
                        <path d="M5.17647059,115.176471 L3.32352941,115.176471 L3.32352941,115.176471 C2.5925643,115.176471 2,115.769035 2,116.5 C2,117.230965 2.5925643,117.823529 3.32352941,117.823529 L5.17647059,117.823529 L5.17647059,120.205882 C5.17647059,120.644461 5.76903489,121 6.5,121 C7.23096511,121 7.82352941,120.644461 7.82352941,120.205882 L7.82352941,117.823529 L9.67647059,117.823529 C10.4074357,117.823529 11,117.230965 11,116.5 L11,116.5 C11,115.769035 10.4074357,115.176471 9.67647059,115.176471 L9.67647059,115.176471 L7.82352941,115.176471 L7.82352941,112.794118 C7.82352941,112.355539 7.23096511,112 6.5,112 C5.76903489,112 5.17647059,112.355539 5.17647059,112.794118 L5.17647059,115.176471 Z" id="Combined-Shape" fill="#D8D8D8" transform="translate(6.500000, 116.500000) rotate(-27.000000) translate(-6.500000, -116.500000) "></path>
                        <path d="M192.176471,155.176471 L190.323529,155.176471 L190.323529,155.176471 C189.592564,155.176471 189,155.769035 189,156.5 C189,157.230965 189.592564,157.823529 190.323529,157.823529 L190.323529,157.823529 L192.176471,157.823529 L192.176471,160.205882 C192.176471,160.644461 192.769035,161 193.5,161 C194.230965,161 194.823529,160.644461 194.823529,160.205882 L194.823529,157.823529 L196.676471,157.823529 C197.407436,157.823529 198,157.230965 198,156.5 L198,156.5 C198,155.769035 197.407436,155.176471 196.676471,155.176471 L196.676471,155.176471 L194.823529,155.176471 L194.823529,152.794118 C194.823529,152.355539 194.230965,152 193.5,152 C192.769035,152 192.176471,152.355539 192.176471,152.794118 L192.176471,155.176471 Z" id="Combined-Shape" fill="#D8D8D8" transform="translate(193.500000, 156.500000) rotate(14.000000) translate(-193.500000, -156.500000) "></path>
                        <path d="M143.176471,14.1764706 L141.323529,14.1764706 L141.323529,14.1764706 C140.592564,14.1764706 140,14.7690349 140,15.5 C140,16.2309651 140.592564,16.8235294 141.323529,16.8235294 L141.323529,16.8235294 L143.176471,16.8235294 L143.176471,19.2058824 C143.176471,19.6444614 143.769035,20 144.5,20 C145.230965,20 145.823529,19.6444614 145.823529,19.2058824 L145.823529,16.8235294 L147.676471,16.8235294 C148.407436,16.8235294 149,16.2309651 149,15.5 L149,15.5 C149,14.7690349 148.407436,14.1764706 147.676471,14.1764706 L147.676471,14.1764706 L145.823529,14.1764706 L145.823529,11.7941176 C145.823529,11.3555386 145.230965,11 144.5,11 C143.769035,11 143.176471,11.3555386 143.176471,11.7941176 L143.176471,14.1764706 Z" id="Combined-Shape" fill="#D8D8D8" transform="translate(144.500000, 15.500000) rotate(14.000000) translate(-144.500000, -15.500000) "></path>
                        <path d="M49.1764706,64.1764706 L47.3235294,64.1764706 L47.3235294,64.1764706 C46.5925643,64.1764706 46,64.7690349 46,65.5 C46,66.2309651 46.5925643,66.8235294 47.3235294,66.8235294 L47.3235294,66.8235294 L49.1764706,66.8235294 L49.1764706,69.2058824 C49.1764706,69.6444614 49.7690349,70 50.5,70 C51.2309651,70 51.8235294,69.6444614 51.8235294,69.2058824 L51.8235294,66.8235294 L53.6764706,66.8235294 C54.4074357,66.8235294 55,66.2309651 55,65.5 L55,65.5 C55,64.7690349 54.4074357,64.1764706 53.6764706,64.1764706 L53.6764706,64.1764706 L51.8235294,64.1764706 L51.8235294,61.7941176 C51.8235294,61.3555386 51.2309651,61 50.5,61 C49.7690349,61 49.1764706,61.3555386 49.1764706,61.7941176 L49.1764706,64.1764706 Z" id="Combined-Shape" fill="#D8D8D8" transform="translate(50.500000, 65.500000) rotate(-15.000000) translate(-50.500000, -65.500000) "></path>
                        <path d="M112.176471,126.176471 L110.323529,126.176471 L110.323529,126.176471 C109.592564,126.176471 109,126.769035 109,127.5 C109,128.230965 109.592564,128.823529 110.323529,128.823529 L110.323529,128.823529 L112.176471,128.823529 L112.176471,131.205882 C112.176471,131.644461 112.769035,132 113.5,132 C114.230965,132 114.823529,131.644461 114.823529,131.205882 L114.823529,128.823529 L116.676471,128.823529 C117.407436,128.823529 118,128.230965 118,127.5 L118,127.5 C118,126.769035 117.407436,126.176471 116.676471,126.176471 L116.676471,126.176471 L114.823529,126.176471 L114.823529,123.794118 C114.823529,123.355539 114.230965,123 113.5,123 C112.769035,123 112.176471,123.355539 112.176471,123.794118 L112.176471,126.176471 Z" id="Combined-Shape" fill="#D8D8D8" transform="translate(113.500000, 127.500000) rotate(-15.000000) translate(-113.500000, -127.500000) "></path>
                        <path d="M19.5882353,166.588235 L16.9117647,166.588235 L16.9117647,166.588235 C15.8559262,166.588235 15,167.444162 15,168.5 L15,168.5 L15,168.5 C15,169.555838 15.8559262,170.411765 16.9117647,170.411765 L16.9117647,170.411765 L19.5882353,170.411765 L19.5882353,173.852941 C19.5882353,174.486444 20.4441615,175 21.5,175 C22.5558385,175 23.4117647,174.486444 23.4117647,173.852941 L23.4117647,170.411765 L26.0882353,170.411765 C27.1440738,170.411765 28,169.555838 28,168.5 C28,167.444162 27.1440738,166.588235 26.0882353,166.588235 L26.0882353,166.588235 L23.4117647,166.588235 L23.4117647,163.147059 C23.4117647,162.513556 22.5558385,162 21.5,162 C20.4441615,162 19.5882353,162.513556 19.5882353,163.147059 L19.5882353,166.588235 Z" id="Combined-Shape" fill="#FFD600" transform="translate(21.500000, 168.500000) rotate(-25.000000) translate(-21.500000, -168.500000) "></path>
                        <path d="M194.529412,56.5294118 L192.470588,56.5294118 L192.470588,56.5294118 C191.658405,56.5294118 191,57.1878165 191,58 C191,58.8121835 191.658405,59.4705882 192.470588,59.4705882 L194.529412,59.4705882 L194.529412,62.1176471 C194.529412,62.6049571 195.187817,63 196,63 C196.812183,63 197.470588,62.6049571 197.470588,62.1176471 L197.470588,59.4705882 L199.529412,59.4705882 C200.341595,59.4705882 201,58.8121835 201,58 L201,58 C201,57.1878165 200.341595,56.5294118 199.529412,56.5294118 L197.470588,56.5294118 L197.470588,53.8823529 C197.470588,53.3950429 196.812183,53 196,53 C195.187817,53 194.529412,53.3950429 194.529412,53.8823529 L194.529412,56.5294118 Z" id="Combined-Shape" fill="#FFD600" transform="translate(196.000000, 58.000000) rotate(27.000000) translate(-196.000000, -58.000000) "></path>
                        <path d="M68.1764706,5.17647059 L66.3235294,5.17647059 L66.3235294,5.17647059 C65.5925643,5.17647059 65,5.76903489 65,6.5 C65,7.23096511 65.5925643,7.82352941 66.3235294,7.82352941 L68.1764706,7.82352941 L68.1764706,10.2058824 C68.1764706,10.6444614 68.7690349,11 69.5,11 C70.2309651,11 70.8235294,10.6444614 70.8235294,10.2058824 L70.8235294,7.82352941 L72.6764706,7.82352941 C73.4074357,7.82352941 74,7.23096511 74,6.5 C74,5.76903489 73.4074357,5.17647059 72.6764706,5.17647059 L70.8235294,5.17647059 L70.8235294,2.79411765 C70.8235294,2.35553858 70.2309651,2 69.5,2 C68.7690349,2 68.1764706,2.35553858 68.1764706,2.79411765 L68.1764706,5.17647059 Z" id="Combined-Shape" fill="#FFD600" transform="translate(69.500000, 6.500000) rotate(-25.000000) translate(-69.500000, -6.500000) "></path>
                    </g>
                </g>
                <g id="404-error-02" transform="translate(63.000000, 359.000000)" fill-rule="nonzero">
                    <g id="Layer_6" transform="translate(28.000000, 207.000000)" fill="#E0E0E0">
                        <ellipse id="Oval" cx="59.432" cy="6.5" rx="59.024" ry="6.22631579"></ellipse>
                    </g>
                    <g id="Layer_7" transform="translate(0.000000, 184.000000)">
                        <path d="M27.6421053,7.57777778 C26.7526316,7.57777778 25.7947368,7.64666667 24.8368421,7.57777778 C21.2789474,7.30222222 21.2789474,2.34222222 24.8368421,2.06666667 C25.7263158,1.99777778 26.7526316,1.99777778 27.6421053,2.06666667 C31.2,2.27333333 31.2,7.30222222 27.6421053,7.57777778 C26.5473684,7.64666667 26.5473684,9.36888889 27.6421053,9.3 C30.7894737,9.09333333 33.1842105,5.92444444 31.6789474,2.82444444 C30.3789474,0.137777778 27.4368421,0.137777778 24.9052632,0.275555556 C21.7578947,0.482222222 19.4315789,3.72 20.8684211,6.75111111 C22.2368421,9.50666667 25.1105263,9.3 27.6421053,9.3 C28.7368421,9.3 28.7368421,7.57777778 27.6421053,7.57777778 Z" id="Shape" fill="#BDBDBD"></path>
                        <path d="M49.3315789,30.5866667 L2.80526316,30.6555556 C1.50526316,30.7244444 -0.410526316,29.8288889 0.821052632,26.3155556 L5.67894737,6.75111111 C5.88421053,5.85555556 6.70526316,5.16666667 7.66315789,5.16666667 L44.3368421,5.16666667 C45.2263158,5.16666667 46.0473684,5.78666667 46.3210526,6.68222222 L51.9315789,26.2466667 C52.2736842,27.4866667 51.2473684,30.5866667 49.3315789,30.5866667 Z" id="Shape" fill="#BDBDBD"></path>
                        <path d="M49.0578947,30.6555556 L2.53157895,30.6555556 C1.23157895,30.6555556 0.205263158,29.4155556 0.547368421,28.1066667 L5.40526316,8.54222222 C5.61052632,7.64666667 6.43157895,6.95777778 7.38947368,6.95777778 L43.5157895,6.95777778 C44.4052632,6.95777778 45.2263158,7.57777778 45.5,8.47333333 L51.1105263,28.0377778 C51.3842105,29.3466667 50.4263158,30.6555556 49.0578947,30.6555556 Z" id="Shape" fill="#CFCFCF"></path>
                        <path d="M26.0684211,13.5022222 L25.5894737,13.5022222 C24.7684211,13.5022222 24.1526316,12.8133333 24.1526316,12.0555556 L24.1526316,7.78444444 C24.1526316,6.95777778 24.8368421,6.33777778 25.5894737,6.33777778 L26.0684211,6.33777778 C26.8894737,6.33777778 27.5052632,7.02666667 27.5052632,7.78444444 L27.5052632,12.0555556 C27.5052632,12.8133333 26.8894737,13.5022222 26.0684211,13.5022222 Z" id="Shape" fill="#BDBDBD"></path>
                        <ellipse id="Oval" fill="#CFCFCF" cx="25.7947368" cy="12.0555556" rx="1" ry="1"></ellipse>
                    </g>
                    <g id="Layer_3" transform="translate(27.000000, 108.000000)">
                        <path d="M6.62311828,16.5967742 C4.64301075,32.516129 2.59462366,48.4354839 0.614516129,64.4225806 C0.341397849,66.5903226 3.75537634,66.5903226 4.02849462,64.4225806 C6.00860215,48.5032258 8.05698925,32.583871 10.0370968,16.5967742 C10.3102151,14.4290323 6.89623656,14.4290323 6.62311828,16.5967742 L6.62311828,16.5967742 Z" id="Shape" fill="#CACACA"></path>
                        <path d="M103.033871,2.57419355 C109.930108,15.9870968 116.758065,29.4677419 123.654301,42.8806452 C124.678495,44.8451613 127.614516,43.083871 126.590323,41.1870968 C119.694086,27.7741935 112.866129,14.2935484 105.969892,0.880645161 C105.013978,-1.08387097 102.077957,0.609677419 103.033871,2.57419355 L103.033871,2.57419355 Z" id="Shape" fill="#CFCFCF"></path>
                        <path d="M43.9037634,55.8193548 C46.2252688,70.9258065 45.4741935,87.7258065 43.8354839,103.170968 C43.6306452,105.33871 47.0446237,105.33871 47.2494624,103.170968 C48.9564516,87.3193548 49.5709677,70.7903226 47.1811828,54.9387097 C46.9080645,52.7709677 43.6306452,53.7193548 43.9037634,55.8193548 L43.9037634,55.8193548 Z" id="Shape" fill="#CACACA"></path>
                        <path d="M70.5327957,55.8193548 C72.8543011,70.9258065 72.1032258,87.7258065 70.4645161,103.170968 C70.2596774,105.33871 73.6736559,105.33871 73.8784946,103.170968 C75.5854839,87.3193548 76.2,70.7903226 73.8102151,54.9387097 C73.5370968,52.7709677 70.2596774,53.7193548 70.5327957,55.8193548 L70.5327957,55.8193548 Z" id="Shape" fill="#CACACA"></path>
                    </g>
                    <circle id="Oval" fill="#CFCFCF" cx="84.5" cy="126.5" r="52.5"></circle>
                    <circle id="Oval" fill="#E2E2E2" cx="86" cy="124" r="47"></circle>
                    <path d="M134.991068,139.407953 C128.93277,161.625557 108.579611,178 84.4144892,178 C55.484414,178 32,154.559408 32,125.683316 C32,114.880261 35.2673967,104.756643 40.985341,96.3995623 C44.1165962,91.7793877 43.299747,128.536954 50.4471774,139.068234 C56.5054755,147.968865 72.570176,165.770126 94.3528209,162.03322 C116.816173,158.160426 135.467563,137.641415 134.991068,139.407953 Z" id="Shape" fill="#CACACA" opacity="0.5"></path>
                    <g id="Layer_4" transform="translate(86.000000, 95.000000)" fill="#979797">
                        <ellipse id="Oval" cx="17.3793103" cy="2.99130435" rx="2.62068966" ry="2.64347826"></ellipse>
                        <ellipse id="Oval" cx="2.75862069" cy="5.00869565" rx="2.62068966" ry="2.64347826"></ellipse>
                        <path d="M7.51724138,15.0956522 C9.37931034,13.2173913 13.3793103,12.8 15.6551724,13.9826087 C16.6206897,14.4695652 17.5172414,13.0086957 16.5517241,12.4521739 C13.5862069,10.9217391 8.75862069,11.4086957 6.34482759,13.8434783 C5.51724138,14.6782609 6.75862069,15.9304348 7.51724138,15.0956522 L7.51724138,15.0956522 Z" id="Shape"></path>
                    </g>
                    <g id="Layer_5" transform="translate(46.000000, 60.000000)">
                        <ellipse id="Oval" fill="#A5A5A5" transform="translate(34.924386, 19.236286) rotate(-7.683621) translate(-34.924386, -19.236286) " cx="34.9243864" cy="19.2362864" rx="34.3876048" ry="5.93168973"></ellipse>
                        <path d="M59.2621359,17.3863636 C44.1747573,22.3636364 24.3300971,24.6136364 11.0097087,23.9318182 C9.37864078,23.8636364 10.2621359,18.2045455 10.2621359,18.2045455 C9.24271845,10.7045455 15.631068,5.18181818 23.6504854,2.59090909 C27.8640777,1.22727273 36.9029126,-0.0681818182 41.4563107,0.204545455 C49.8834951,0.681818182 57.4951456,4.22727273 58.5145631,11.7272727 C58.5145631,11.5909091 60.8252427,16.8409091 59.2621359,17.3863636 Z" id="Shape" fill="#CFCFCF"></path>
                        <path d="M33.776699,22.8409091 C25.5533981,23.8636364 17.5339806,24.2045455 11.0776699,23.8636364 C9.44660194,23.7954545 10.3300971,18.1363636 10.3300971,18.1363636 C9.78640777,14.0454545 11.4174757,10.5681818 14.3398058,7.77272727 C15.2912621,6.81818182 12.776699,15.6818182 17.5339806,18.6136364 C24.5339806,22.9090909 38.9417476,22.2272727 33.776699,22.8409091 Z" id="Shape" fill="#C1C1C1"></path>
                    </g>
                    <g id="Layer_8" transform="translate(121.000000, 0.000000)">
                        <path d="M70.5221154,3.56730769 C70.9317308,3.36538462 70.9317308,2.69230769 70.5221154,2.49038462 C68.2009615,1.34615385 62.3980769,-0.942307692 56.9365385,1.61538462 C49.9730769,4.84615385 44.5798077,8.54807692 44.5798077,8.54807692 L42.0538462,7.67307692 C41.3028846,7.40384615 40.4836538,7.47115385 39.7326923,7.875 L36.9336538,9.49038462 L36.9336538,11.6442308 L22.5971154,18.9807692 C21.7096154,19.4519231 20.6173077,19.3846154 19.7298077,18.9134615 L12.2884615,14.4711538 L19.2519231,26.1826923 C20.0711538,27.5288462 21.7096154,28 23.1432692,27.3269231 L37.6846154,20.4615385 L34.0663462,29.4134615 L41.0298077,25.8461538 C41.5759615,25.5769231 41.9855769,25.1057692 42.1903846,24.5673077 L45.5355769,16.8269231 L70.5221154,3.56730769 Z" id="Shape" fill="#CFCFCF"></path>
                        <path d="M4.98365385,33.7211538 C4.36923077,34.0576923 4.91538462,34.9326923 5.52980769,34.5961538 C8.67019231,32.9134615 11.8105769,31.2980769 14.8826923,29.6153846 C15.4288462,29.2788462 14.9509615,28.4038462 14.3365385,28.7403846 C11.1961538,30.4230769 8.05576923,32.0384615 4.98365385,33.7211538 Z" id="Shape" fill="#D1D0D0"></path>
                        <path d="M6.28076923,29.1442308 C4.36923077,30.1538462 2.45769231,31.1634615 0.477884615,32.1730769 C-0.136538462,32.5096154 0.409615385,33.3846154 1.02403846,33.0480769 C2.93557692,32.0384615 4.84711538,31.0288462 6.82692308,30.0192308 C7.37307692,29.6826923 6.82692308,28.8076923 6.28076923,29.1442308 L6.28076923,29.1442308 Z" id="Shape" fill="#D1D0D0"></path>
                    </g>
                </g>
            </g>
        </g>
    </g>
</svg>