<?xml version="1.0" encoding="UTF-8"?>
<svg width="299px" height="349px" viewBox="0 0 299 349" version="1.1" xmlns="http://www.w3.org/2000/svg" xmlns:xlink="http://www.w3.org/1999/xlink">
    <!-- Generator: Sketch 46.2 (44496) - http://www.bohemiancoding.com/sketch -->
    <title>Group 4</title>
    <desc>Created with Sketch.</desc>
    <defs></defs>
    <g id="Page-1" stroke="none" stroke-width="1" fill="none" fill-rule="evenodd">
        <g id="Desktop-HD" transform="translate(-151.000000, 0.000000)">
            <g id="Group-4" transform="translate(151.000000, -255.000000)">
                <ellipse id="Oval" fill-opacity="0.2" fill="#DBDBDB" cx="149" cy="577" rx="149" ry="27"></ellipse>
                <path d="M87.9986364,508.101364 C89.2968247,508.101364 90.5718119,508.089773 91.8236364,508.066591 C93.0754608,508.043409 94.3272665,507.985455 95.5790909,507.892727 C96.8309153,507.8 98.140675,507.672501 99.5084091,507.510227 C100.876143,507.347954 102.348174,507.127729 103.924545,506.849545 L107.819091,522.497273 C105.40817,523.192731 103.090011,523.783861 100.864545,524.270682 C98.6390798,524.757502 96.3441027,525.151589 93.9795455,525.452955 C91.6149882,525.75432 89.0997861,525.986136 86.4338636,526.148409 C83.7679412,526.310683 80.7659258,526.391818 77.4277273,526.391818 C72.605885,526.391818 67.7029795,526.020913 62.7188636,525.279091 C57.7347478,524.537269 52.9941134,523.192737 48.4968182,521.245455 C48.7750014,525.000928 49.018408,528.431803 49.2270455,531.538182 C49.4356829,534.644561 49.5863632,537.588622 49.6790909,540.370455 C49.7718186,543.152287 49.8413634,545.864532 49.8877273,548.507273 C49.9340911,551.150013 49.9572727,553.88544 49.9572727,556.713636 C49.9572727,558.660919 49.9456819,560.642944 49.9225,562.659773 C49.8993181,564.676601 49.8877273,566.867261 49.8877273,569.231818 L49.8877273,573.543636 L32.6404545,573.543636 L32.6404545,569.162273 C32.6404545,562.346784 32.6056822,555.971848 32.5361364,550.037273 C32.4665906,544.102698 32.3043195,538.492754 32.0493182,533.207273 C31.7943169,527.921792 31.4350023,522.868206 30.9713636,518.046364 C30.507725,513.224521 29.8818221,508.495478 29.0936364,503.859091 C28.3054506,499.222704 27.331824,494.609568 26.1727273,490.019545 C25.0136306,485.429523 23.6227354,480.72366 22,475.901818 L38.6909091,470.616364 C39.432731,473.027285 40.1165878,475.414988 40.7425,477.779545 C41.3684122,480.144103 41.9827243,482.554988 42.5854545,485.012273 C42.9563655,486.356825 43.2924985,487.736129 43.5938636,489.150227 C43.8952288,490.564325 44.2313618,491.966811 44.6022727,493.357727 C45.4368224,496.649562 46.746582,499.327035 48.5315909,501.390227 C50.3165998,503.453419 52.2522623,504.971813 54.3386364,505.945455 C54.0604532,505.249997 53.7590925,504.508186 53.4345455,503.72 C53.1099984,502.931814 52.8202285,502.039323 52.5652273,501.0425 C52.310226,500.045677 52.1015917,498.944551 51.9393182,497.739091 C51.7770446,496.53363 51.6959091,495.189098 51.6959091,493.705455 C51.6959091,489.486343 52.5188554,485.719335 54.1647727,482.404318 C55.81069,479.089302 57.9665776,476.28433 60.6325,473.989318 C63.2984224,471.694307 66.3120286,469.955688 69.6734091,468.773409 C73.0347895,467.59113 76.4077104,467 79.7922727,467 C82.4813771,467 84.9733976,467.312951 87.2684091,467.938864 C89.5634206,468.564776 91.7077173,469.364541 93.7013636,470.338182 C95.69501,471.311823 97.5843093,472.389767 99.3693182,473.572045 C101.154327,474.754324 102.904537,475.901813 104.62,477.014545 L96.4136364,491.688636 C94.790901,490.52954 93.2609163,489.497959 91.8236364,488.593864 C90.3863565,487.689768 88.9954613,486.936367 87.6509091,486.333636 C86.3063569,485.730906 84.9965973,485.255684 83.7215909,484.907955 C82.4465845,484.560226 81.1368249,484.363182 79.7922727,484.316818 C78.4477206,484.270454 77.0452346,484.467498 75.5847727,484.907955 C74.1243109,485.348411 72.7913697,486.009087 71.5859091,486.89 C70.3804485,487.770913 69.3720495,488.848857 68.5606818,490.123864 C67.7493141,491.39887 67.3436364,492.847719 67.3436364,494.470455 C67.3436364,497.113195 67.9695392,499.315446 69.2213636,501.077273 C70.4731881,502.8391 72.0843083,504.241586 74.0547727,505.284773 C76.0252371,506.32796 78.2390786,507.05818 80.6963636,507.475455 C83.1536486,507.892729 85.5877152,508.101364 87.9986364,508.101364 Z M152.05,561.234091 C148.155435,561.234091 144.492744,560.480689 141.061818,558.973864 C137.630892,557.467038 134.640467,555.427058 132.090455,552.853864 C129.540442,550.280669 127.523644,547.267063 126.04,543.812955 C124.556356,540.358846 123.814545,536.684565 123.814545,532.79 C123.814545,528.895435 124.556356,525.232744 126.04,521.801818 C127.523644,518.370892 129.540442,515.380467 132.090455,512.830455 C134.640467,510.280442 137.630892,508.263644 141.061818,506.78 C144.492744,505.296356 148.155435,504.554545 152.05,504.554545 C155.944565,504.554545 159.618846,505.296356 163.072955,506.78 C166.527063,508.263644 169.540669,510.280442 172.113864,512.830455 C174.687058,515.380467 176.727038,518.370892 178.233864,521.801818 C179.740689,525.232744 180.494091,528.895435 180.494091,532.79 C180.494091,536.684565 179.740689,540.358846 178.233864,543.812955 C176.727038,547.267063 174.687058,550.280669 172.113864,552.853864 C169.540669,555.427058 166.527063,557.467038 163.072955,558.973864 C159.618846,560.480689 155.944565,561.234091 152.05,561.234091 Z M152.05,521.384545 C150.473628,521.384545 149.001598,521.685906 147.633864,522.288636 C146.26613,522.891367 145.072278,523.702722 144.052273,524.722727 C143.032268,525.742732 142.220912,526.948175 141.618182,528.339091 C141.015452,529.730007 140.714091,531.213628 140.714091,532.79 C140.714091,534.366372 141.015452,535.861584 141.618182,537.275682 C142.220912,538.68978 143.032268,539.918404 144.052273,540.961591 C145.072278,542.004778 146.26613,542.827724 147.633864,543.430455 C149.001598,544.033185 150.473628,544.334545 152.05,544.334545 C153.626372,544.334545 155.121584,544.033185 156.535682,543.430455 C157.94978,542.827724 159.178404,542.004778 160.221591,540.961591 C161.264778,539.918404 162.099315,538.68978 162.725227,537.275682 C163.351139,535.861584 163.664091,534.366372 163.664091,532.79 C163.664091,531.213628 163.351139,529.730007 162.725227,528.339091 C162.099315,526.948175 161.264778,525.742732 160.221591,524.722727 C159.178404,523.702722 157.94978,522.891367 156.535682,522.288636 C155.121584,521.685906 153.626372,521.384545 152.05,521.384545 Z M256.09,508.101364 C257.388188,508.101364 258.663176,508.089773 259.915,508.066591 C261.166824,508.043409 262.41863,507.985455 263.670455,507.892727 C264.922279,507.8 266.232039,507.672501 267.599773,507.510227 C268.967507,507.347954 270.439538,507.127729 272.015909,506.849545 L275.910455,522.497273 C273.499533,523.192731 271.181375,523.783861 268.955909,524.270682 C266.730443,524.757502 264.435466,525.151589 262.070909,525.452955 C259.706352,525.75432 257.19115,525.986136 254.525227,526.148409 C251.859305,526.310683 248.857289,526.391818 245.519091,526.391818 C240.697249,526.391818 235.794343,526.020913 230.810227,525.279091 C225.826111,524.537269 221.085477,523.192737 216.588182,521.245455 C216.866365,525.000928 217.109772,528.431803 217.318409,531.538182 C217.527046,534.644561 217.677727,537.588622 217.770455,540.370455 C217.863182,543.152287 217.932727,545.864532 217.979091,548.507273 C218.025455,551.150013 218.048636,553.88544 218.048636,556.713636 C218.048636,558.660919 218.037046,560.642944 218.013864,562.659773 C217.990682,564.676601 217.979091,566.867261 217.979091,569.231818 L217.979091,573.543636 L200.731818,573.543636 L200.731818,569.162273 C200.731818,562.346784 200.697046,555.971848 200.6275,550.037273 C200.557954,544.102698 200.395683,538.492754 200.140682,533.207273 C199.885681,527.921792 199.526366,522.868206 199.062727,518.046364 C198.599089,513.224521 197.973186,508.495478 197.185,503.859091 C196.396814,499.222704 195.423188,494.609568 194.264091,490.019545 C193.104994,485.429523 191.714099,480.72366 190.091364,475.901818 L206.782273,470.616364 C207.524095,473.027285 208.207951,475.414988 208.833864,477.779545 C209.459776,480.144103 210.074088,482.554988 210.676818,485.012273 C211.047729,486.356825 211.383862,487.736129 211.685227,489.150227 C211.986592,490.564325 212.322725,491.966811 212.693636,493.357727 C213.528186,496.649562 214.837946,499.327035 216.622955,501.390227 C218.407963,503.453419 220.343626,504.971813 222.43,505.945455 C222.151817,505.249997 221.850456,504.508186 221.525909,503.72 C221.201362,502.931814 220.911592,502.039323 220.656591,501.0425 C220.40159,500.045677 220.192955,498.944551 220.030682,497.739091 C219.868408,496.53363 219.787273,495.189098 219.787273,493.705455 C219.787273,489.486343 220.610219,485.719335 222.256136,482.404318 C223.902054,479.089302 226.057941,476.28433 228.723864,473.989318 C231.389786,471.694307 234.403392,469.955688 237.764773,468.773409 C241.126153,467.59113 244.499074,467 247.883636,467 C250.572741,467 253.064761,467.312951 255.359773,467.938864 C257.654784,468.564776 259.799081,469.364541 261.792727,470.338182 C263.786374,471.311823 265.675673,472.389767 267.460682,473.572045 C269.245691,474.754324 270.995901,475.901813 272.711364,477.014545 L264.505,491.688636 C262.882265,490.52954 261.35228,489.497959 259.915,488.593864 C258.47772,487.689768 257.086825,486.936367 255.742273,486.333636 C254.397721,485.730906 253.087961,485.255684 251.812955,484.907955 C250.537948,484.560226 249.228189,484.363182 247.883636,484.316818 C246.539084,484.270454 245.136598,484.467498 243.676136,484.907955 C242.215675,485.348411 240.882733,486.009087 239.677273,486.89 C238.471812,487.770913 237.463413,488.848857 236.652045,490.123864 C235.840678,491.39887 235.435,492.847719 235.435,494.470455 C235.435,497.113195 236.060903,499.315446 237.312727,501.077273 C238.564552,502.8391 240.175672,504.241586 242.146136,505.284773 C244.116601,506.32796 246.330442,507.05818 248.787727,507.475455 C251.245012,507.892729 253.679079,508.101364 256.09,508.101364 Z" id="۴۰۴" fill="#481B99"></path>
                <path d="M0.00808615816,576.715756 C0.00269977391,576.810388 0,576.905137 0,577 C0,591.911688 66.7095723,604 149,604 C231.290428,604 298,591.911688 298,577 C298,576.905137 297.9973,576.810388 297.991914,576.715756 L298.339844,576.715756 L135.258927,0 L0.402145892,575.001091 C0.179413534,575.552623 0.048109,576.108756 0.0109669915,576.668995 L2.84217094e-14,576.715756 Z" id="Combined-Shape" fill-opacity="0.2" fill="#DBDBDB"></path>
                <g id="Group-3" transform="translate(36.000000, 274.000000)">
                    <path d="M133,198 L129.5,198 L129.5,198 C128.119288,198 127,199.119288 127,200.5 C127,201.880712 128.119288,203 129.5,203 L133,203 L133,207.5 C133,208.328427 134.119288,209 135.5,209 C136.880712,209 138,208.328427 138,207.5 L138,203 L141.5,203 C142.880712,203 144,201.880712 144,200.5 C144,199.119288 142.880712,198 141.5,198 L138,198 L138,193.5 C138,192.671573 136.880712,192 135.5,192 C134.119288,192 133,192.671573 133,193.5 L133,198 Z" id="Combined-Shape" fill="#D8D8D8"></path>
                    <path d="M4.7289572,113.728957 L2.87601602,113.728957 L2.87601602,113.728957 C2.14505091,113.728957 1.55248661,114.321521 1.55248661,115.052487 C1.55248661,115.783452 2.14505091,116.376016 2.87601602,116.376016 L4.7289572,116.376016 L4.7289572,118.758369 C4.7289572,119.196948 5.3215215,119.552487 6.05248661,119.552487 C6.78345172,119.552487 7.37601602,119.196948 7.37601602,118.758369 L7.37601602,116.376016 L9.2289572,116.376016 C9.95992231,116.376016 10.5524866,115.783452 10.5524866,115.052487 L10.5524866,115.052487 C10.5524866,114.321521 9.95992231,113.728957 9.2289572,113.728957 L9.2289572,113.728957 L7.37601602,113.728957 L7.37601602,111.346604 C7.37601602,110.908025 6.78345172,110.552487 6.05248661,110.552487 C5.3215215,110.552487 4.7289572,110.908025 4.7289572,111.346604 L4.7289572,113.728957 Z" id="Combined-Shape" fill="#D8D8D8" transform="translate(6.052487, 115.052487) rotate(-27.000000) translate(-6.052487, -115.052487) "></path>
                    <path d="M192.13145,114.13145 L190.278509,114.13145 L190.278509,114.13145 C189.547544,114.13145 188.954979,114.724014 188.954979,115.454979 C188.954979,116.185944 189.547544,116.778509 190.278509,116.778509 L190.278509,116.778509 L192.13145,116.778509 L192.13145,119.160862 C192.13145,119.599441 192.724014,119.954979 193.454979,119.954979 C194.185944,119.954979 194.778509,119.599441 194.778509,119.160862 L194.778509,116.778509 L196.63145,116.778509 C197.362415,116.778509 197.954979,116.185944 197.954979,115.454979 L197.954979,115.454979 C197.954979,114.724014 197.362415,114.13145 196.63145,114.13145 L196.63145,114.13145 L194.778509,114.13145 L194.778509,111.749097 C194.778509,111.310518 194.185944,110.954979 193.454979,110.954979 C192.724014,110.954979 192.13145,111.310518 192.13145,111.749097 L192.13145,114.13145 Z" id="Combined-Shape" fill="#D8D8D8" transform="translate(193.454979, 115.454979) rotate(14.000000) translate(-193.454979, -115.454979) "></path>
                    <path d="M143.13145,13.1314499 L141.278509,13.1314499 L141.278509,13.1314499 C140.547544,13.1314499 139.954979,13.7240142 139.954979,14.4549793 C139.954979,15.1859444 140.547544,15.7785087 141.278509,15.7785087 L141.278509,15.7785087 L143.13145,15.7785087 L143.13145,18.1608617 C143.13145,18.5994407 143.724014,18.9549793 144.454979,18.9549793 C145.185944,18.9549793 145.778509,18.5994407 145.778509,18.1608617 L145.778509,15.7785087 L147.63145,15.7785087 C148.362415,15.7785087 148.954979,15.1859444 148.954979,14.4549793 L148.954979,14.4549793 C148.954979,13.7240142 148.362415,13.1314499 147.63145,13.1314499 L147.63145,13.1314499 L145.778509,13.1314499 L145.778509,10.7490969 C145.778509,10.3105179 145.185944,9.9549793 144.454979,9.9549793 C143.724014,9.9549793 143.13145,10.3105179 143.13145,10.7490969 L143.13145,13.1314499 Z" id="Combined-Shape" fill="#D8D8D8" transform="translate(144.454979, 14.454979) rotate(14.000000) translate(-144.454979, -14.454979) "></path>
                    <path d="M49.1878225,63.1878225 L47.3348813,63.1878225 L47.3348813,63.1878225 C46.6039162,63.1878225 46.0113519,63.7803868 46.0113519,64.5113519 C46.0113519,65.242317 46.6039162,65.8348813 47.3348813,65.8348813 L47.3348813,65.8348813 L49.1878225,65.8348813 L49.1878225,68.2172343 C49.1878225,68.6558133 49.7803868,69.0113519 50.5113519,69.0113519 C51.242317,69.0113519 51.8348813,68.6558133 51.8348813,68.2172343 L51.8348813,65.8348813 L53.6878225,65.8348813 C54.4187876,65.8348813 55.0113519,65.242317 55.0113519,64.5113519 L55.0113519,64.5113519 C55.0113519,63.7803868 54.4187876,63.1878225 53.6878225,63.1878225 L53.6878225,63.1878225 L51.8348813,63.1878225 L51.8348813,60.8054696 C51.8348813,60.3668905 51.242317,60.0113519 50.5113519,60.0113519 C49.7803868,60.0113519 49.1878225,60.3668905 49.1878225,60.8054696 L49.1878225,63.1878225 Z" id="Combined-Shape" fill="#D8D8D8" transform="translate(50.511352, 64.511352) rotate(-15.000000) translate(-50.511352, -64.511352) "></path>
                    <path d="M112.187823,125.187823 L110.334881,125.187823 L110.334881,125.187823 C109.603916,125.187823 109.011352,125.780387 109.011352,126.511352 C109.011352,127.242317 109.603916,127.834881 110.334881,127.834881 L110.334881,127.834881 L112.187823,127.834881 L112.187823,130.217234 C112.187823,130.655813 112.780387,131.011352 113.511352,131.011352 C114.242317,131.011352 114.834881,130.655813 114.834881,130.217234 L114.834881,127.834881 L116.687823,127.834881 C117.418788,127.834881 118.011352,127.242317 118.011352,126.511352 L118.011352,126.511352 C118.011352,125.780387 117.418788,125.187823 116.687823,125.187823 L116.687823,125.187823 L114.834881,125.187823 L114.834881,122.80547 C114.834881,122.366891 114.242317,122.011352 113.511352,122.011352 C112.780387,122.011352 112.187823,122.366891 112.187823,122.80547 L112.187823,125.187823 Z" id="Combined-Shape" fill="#D8D8D8" transform="translate(113.511352, 126.511352) rotate(-15.000000) translate(-113.511352, -126.511352) "></path>
                    <path d="M19.7262546,165.726255 L17.049784,165.726255 L17.049784,165.726255 C15.9939455,165.726255 15.1380193,166.582181 15.1380193,167.638019 L15.1380193,167.638019 L15.1380193,167.638019 C15.1380193,168.693858 15.9939455,169.549784 17.049784,169.549784 L17.049784,169.549784 L19.7262546,169.549784 L19.7262546,172.99096 C19.7262546,173.624464 20.5821808,174.138019 21.6380193,174.138019 C22.6938578,174.138019 23.549784,173.624464 23.549784,172.99096 L23.549784,169.549784 L26.2262546,169.549784 C27.2820931,169.549784 28.1380193,168.693858 28.1380193,167.638019 C28.1380193,166.582181 27.2820931,165.726255 26.2262546,165.726255 L26.2262546,165.726255 L23.549784,165.726255 L23.549784,162.285078 C23.549784,161.651575 22.6938578,161.138019 21.6380193,161.138019 C20.5821808,161.138019 19.7262546,161.651575 19.7262546,162.285078 L19.7262546,165.726255 Z" id="Combined-Shape" fill="#50269B" transform="translate(21.638019, 167.638019) rotate(-25.000000) translate(-21.638019, -167.638019) "></path>
                    <path d="M204.254397,75.2543969 L202.195573,75.2543969 L202.195573,75.2543969 C201.38339,75.2543969 200.724985,75.9128017 200.724985,76.7249851 C200.724985,77.5371686 201.38339,78.1955734 202.195573,78.1955734 L204.254397,78.1955734 L204.254397,80.8426322 C204.254397,81.3299423 204.912802,81.7249851 205.724985,81.7249851 C206.537169,81.7249851 207.195573,81.3299423 207.195573,80.8426322 L207.195573,78.1955734 L209.254397,78.1955734 C210.06658,78.1955734 210.724985,77.5371686 210.724985,76.7249851 L210.724985,76.7249851 C210.724985,75.9128017 210.06658,75.2543969 209.254397,75.2543969 L207.195573,75.2543969 L207.195573,72.6073381 C207.195573,72.120028 206.537169,71.7249851 205.724985,71.7249851 C204.912802,71.7249851 204.254397,72.120028 204.254397,72.6073381 L204.254397,75.2543969 Z" id="Combined-Shape" fill="#50269B" transform="translate(205.724985, 76.724985) rotate(27.000000) translate(-205.724985, -76.724985) "></path>
                    <path d="M68.6566378,4.65663781 L66.8036966,4.65663781 L66.8036966,4.65663781 C66.0727315,4.65663781 65.4801672,5.24920211 65.4801672,5.98016722 C65.4801672,6.71113233 66.0727315,7.30369663 66.8036966,7.30369663 L68.6566378,7.30369663 L68.6566378,9.68604957 C68.6566378,10.1246286 69.2492021,10.4801672 69.9801672,10.4801672 C70.7111323,10.4801672 71.3036966,10.1246286 71.3036966,9.68604957 L71.3036966,7.30369663 L73.1566378,7.30369663 C73.8876029,7.30369663 74.4801672,6.71113233 74.4801672,5.98016722 C74.4801672,5.24920211 73.8876029,4.65663781 73.1566378,4.65663781 L71.3036966,4.65663781 L71.3036966,2.27428487 C71.3036966,1.8357058 70.7111323,1.48016722 69.9801672,1.48016722 C69.2492021,1.48016722 68.6566378,1.8357058 68.6566378,2.27428487 L68.6566378,4.65663781 Z" id="Combined-Shape" fill="#50269B" transform="translate(69.980167, 5.980167) rotate(-25.000000) translate(-69.980167, -5.980167) "></path>
                </g>
            </g>
        </g>
    </g>
</svg>